<?xml version="1.0" encoding="utf-8"?>
<!-- Generator: Adobe Illustrator 15.0.0, SVG Export Plug-In . SVG Version: 6.00 Build 0)  -->
<!DOCTYPE svg PUBLIC "-//W3C//DTD SVG 1.1//EN" "http://www.w3.org/Graphics/SVG/1.1/DTD/svg11.dtd">
<svg version="1.1" id="Layer_1" xmlns="http://www.w3.org/2000/svg" xmlns:xlink="http://www.w3.org/1999/xlink" x="0px" y="0px"
	 width="595.28px" height="150.5px" viewBox="0 0 595.28 150.5" enable-background="new 0 0 595.28 150.5" xml:space="preserve">
<g>
	<g>
		<path fill-rule="evenodd" clip-rule="evenodd" fill="#1C75BC" d="M59.632,30.739c-3.068,0-6.138,0-9.206,0
			c0-4.398,0-8.797,0-13.195c-6.238,0-12.479,0-18.718,0c0,4.398,0,8.797,0,13.195c-3.068,0-6.137,0-9.206,0
			c0,4.398,0,8.796,0,13.195c-3.068,0-6.137,0-9.205,0c0,30.886,0,61.783,0,92.67c6.238,0,12.479,0,18.718,0
			c0-13.194,0-26.391,0-39.584c6.034,0,12.07,0,18.105,0c0,13.193,0,26.39,0,39.584c6.238,0,12.479,0,18.718,0
			c0-30.887,0-61.784,0-92.67c-3.068,0-6.137,0-9.206,0C59.632,39.535,59.632,35.137,59.632,30.739z M50.12,83.519
			c-6.035,0-12.071,0-18.105,0c0-13.092,0-26.188,0-39.278c6.034,0,12.07,0,18.105,0C50.12,57.33,50.12,70.427,50.12,83.519z
			 M133.584,17.543c-15.443,0-30.892,0-46.336,0c0,39.682,0,79.377,0,119.06c6.239,0,12.48,0,18.719,0c0-17.591,0-35.188,0-52.778
			c9.205,0,18.412,0,27.617,0c0-4.398,0-8.797,0-13.196c3.068,0,6.137,0,9.206,0c0-13.295,0-26.595,0-39.89
			c-3.068,0-6.138,0-9.206,0C133.584,26.34,133.584,21.941,133.584,17.543z M124.071,70.322c-6.035,0-12.07,0-18.104,0
			c0-13.091,0-26.187,0-39.278c6.034,0,12.07,0,18.104,0C124.071,44.136,124.071,57.231,124.071,70.322z M195.875,31.044
			c0-4.5,0-9.001,0-13.501c-12.376,0-24.755,0-37.13,0c0,4.5,0,9.001,0,13.501c3.068,0,6.138,0,9.206,0c0,30.785,0,61.581,0,92.365
			c-3.068,0-6.138,0-9.206,0c0,4.396,0,8.798,0,13.194c12.375,0,24.754,0,37.13,0c0-4.396,0-8.798,0-13.194c-3.07,0-6.138,0-9.207,0
			c0-30.784,0-61.58,0-92.365C189.737,31.044,192.806,31.044,195.875,31.044z"/>
	</g>
</g>
<path fill="#F8951D" d="M345.129,130.968l0.086-1.203l1.205,0.084l-0.084,1.205L345.129,130.968L345.129,130.968L345.129,130.968z
	 M332.979,10.164l0.084-1.206l-1.807-0.126l-0.086,1.206L332.979,10.164L332.979,10.164L332.979,10.164z M261.127,76.022
	l-0.089-13.704c-0.011-1.959-0.025-2.277-0.134-3.187c-0.081-0.676-0.252-1.521-0.58-1.946c-0.479-0.62-1.294-0.347-1.753-1.051
	c-0.889-1.361-0.455-6.373-0.455-6.373l-8.646-0.605l-19.126,36.83l-2.014-0.14c0,0-0.061-4.729,0.506-7.248
	c0.425-1.887,1.203-2.526,2.013-4.25c0.705-1.498,1.433-3.813,0.989-4.01c-0.16-0.07-0.469,0.13-0.604-0.042
	c-0.12-0.154-0.099-0.612-0.244-0.921c-0.164-0.347-0.542-0.501-0.84-0.722c-1.439-1.055-1.055-3.584-1.798-5.813
	c-0.379-1.133-9.384-7.244-10.574-7.175c-1.129,0.065-2.071,0.457-3.01,0.939c-1.267,0.651-1.423,0.94-1.56,2.895l-4.995,71.429
	c-0.137,1.954-0.09,2.211,0.462,2.572c2.185,1.43,0.956,2.426,2.597,6.099c0.145,0.324,0.323,0.511,0.934,0.678
	c0.533,0.145,1.392,0.272,1.392,0.272s-0.741,3.193-0.252,3.619c0.167,0.144,0.474-0.03,0.704-0.283
	c0.683-0.744,0.682-2.161,1.367-2.925c1.021-1.137,4.951-0.726,5.44-2.732c0.125-0.514-0.019-1.144,0.272-1.394
	c0.321-0.272,1.174-0.084,1.752,0.023c0.778,0.145,0.938-0.044,1.605-1.888c1.75-4.836,3.364-9.904,5.756-14.312
	c4.087-7.532,11.418-19.823,11.727-21.938c0.322-2.214,0.323-4.63,0.323-4.63l3.617,0.253l-3.235,30.115
	c-0.21,1.946-0.208,2.338,0.024,3.894c0.146,0.986,0.795,3.315,1.457,3.925c0.188,0.175,0.429,0.287,0.616,0.498
	c0.293,0.328,0.459,0.901,0.565,1.393c0.145,0.664,0.303,0.73,1.579,0.656c0.947-0.057,2.412-0.169,2.802,0.375
	c0.284,0.396,0,1.141,0.203,1.525c0.738,1.407,4.588-1.816,4.954-2.418c1.643-2.702,1.471-6.845,3.002-7.891
	c0.319-0.217,0.709-0.301,1.083-0.52c1.843-1.083,4.85-9.375,5.372-12.338c0.34-1.935,0.397-2.147,0.579-2.136l0.402,0.028
	c0,0-0.046-3.178,0.682-4.557c0.626-1.186,1.827-1.035,2.56-1.835c1.044-1.139,1.146-4.198,2.156-5.092
	c0.469-0.417,1.138-0.363,1.516-0.754c1.128-1.163-0.285-6.241,0.506-7.235c0.337-0.424,1.077-0.103,1.821-0.251
	c0.937-0.185,5.538-8.362,5.967-10.602c0.369-1.933,0.325-3.429,0.949-4.866c1.093-2.516,4.233-4.854,5.562-7.751
	c1.39-3.029,0.798-6.667,2.501-8.878c1.583-2.051,5.141-2.873,6.497-5.127c0.891-1.479,0.832-3.578,1.865-4.989
	c1.094-1.492,3.411-2.215,4.436-3.933c1.109-1.862,0.707-4.892,2.229-5.901c0.906-0.601,2.486-0.489,3.115-1.304
	c0.299-0.387,0.385-0.98,0.756-1.399c0.426-0.482,1.234-0.735,1.883-1.175c1.016-0.684,1.645-1.822,2.557-2.486
	c1.264-0.924,3.07-0.933,4.318-1.84c1.123-0.816,1.797-2.359,2.791-3.447c1.881-2.058,3.441-1.932,3.672-5.795
	c0.158-2.642-0.742-6.716-0.742-6.716l2.34,1.238c1.049,0.556,1.15,0.705,1.008,1.482c-0.5,2.677,0.236,2.984,6.027,1.212
	c2.029-0.62,4.965-2.829,5.164-3.885c0.121-0.662,0.1-1.447,0.1-1.447l-3.617-0.253l-0.127,1.809l-1.203-0.084l0.166-2.413
	l-2.41-0.168l0.209-3.014c0,0-2.4-0.443-3.33,0.076c-0.523,0.292-0.582,0.89-0.762,1.409c-0.338,0.957-5.625,3.425-8.762,4.089
	c-2.189,0.463-17.652,9.713-17.973,10.749c-0.635,2.06-1.208,4.753-2.181,5.199c-1.287,0.588-3.641-0.241-4.893,0.667
	c-1.413,1.025-1.422,4.264-3.092,5.236c-1.32,0.768-1.752,0.326-2.42,1.689c-0.799,1.627-0.603,3.988-1.745,5.232
	c-0.461,0.505-1.141,0.826-1.592,1.377c-0.476,0.582-0.698,1.418-1.189,1.76c-0.813,0.567-2.364-0.21-3.533-0.111
	c-1.141,0.097-1.92,1.026-2.738,2.114C270.434,57.344,261.127,76.022,261.127,76.022L261.127,76.022L261.127,76.022z
	 M407.061,25.039L407.061,25.039c0,0-0.1,0.535-0.068,0.965c0.086,1.095,1.031,1.506,1.896,2.01c1.307,0.762,2.428,1.737,3.66,2.255
	c4.293,1.807,5.33-1.272,8.471-3.787c2.143-1.718,5.613-2.474,7.727-4.166c0.398-0.319,0.75-0.673,1.025-1.091
	c0.375-0.565,0.635-0.612,2.588-0.476l7.678,0.537l-0.422,6.028l2.33,1.375c1.047,0.619,1.168,0.89,1.203,2.708
	c0.025,1.347,0.287,3.264-0.461,4.008c-0.438,0.433-1.215,0.469-1.789,0.769c-1.523,0.803-1.617,9.5-3.334,10.926
	c-0.459,0.382-1.064,0.596-1.539,1.019c-0.729,0.649-1.143,1.794-1.891,2.466c-0.57,0.513-1.332,0.752-2.047,1.109
	c-1.672,0.835-3.096,2.318-4.465,3.684c-1.389,1.386-1.586,1.54-1.951,1.554c-1.629,0.057-2.666-1.437-3.828-4.208
	c-0.883-2.095-1.83-4.868-1.83-4.868s-4.232,6.632-7.316,9.363c-0.6,0.531-1.158,0.916-1.561,1.453
	c-0.92,1.224-1.041,3.24-1.811,4.748c-0.457,0.892-1.141,1.606-1.691,2.463c-1.541,2.396-2.039,5.914-3.732,7.771
	c-0.52,0.567-1.15,0.98-1.572,1.738c-1.338,2.4-0.58,8.265-0.58,8.265s3.809-3.651,6.652-5.145c1.455-0.765,2.66-0.961,3.164-1.706
	c0.414-0.609,0.363-1.584,0.805-2.014c0.605-0.585,2.127-0.166,3.402-0.477c2.412-0.584,3.516-3.236,5.154-5.042
	c1.4-1.55,3.428-2.773,4.486-4.409c1.154-1.783,1.16-4.061,2.541-5.035c1.438-1.013,4.363-0.615,5.795-1.752
	c0.625-0.495,2.514-3.219,3.844-1.823c0.811,0.853-2.631,3.578-3.342,4.491c-0.621,0.792-0.836,1.57-0.135,1.93
	c1.068,0.549,4.219,0.296,4.219,0.296s0.006,0.78-0.105,1.507c-0.549,3.608-4.137,6.026-3.783,7.041
	c0.133,0.383,0.828,0.577,1.299,0.752c0.639,0.236,0.705,0.391,0.658,1.558c-0.033,0.866-0.025,2.007-0.539,2.53
	c-0.313,0.318-0.822,0.404-1.256,0.615c-1.578,0.77-2.148,3.188-3.322,4.896c-1.232,1.797-3.133,2.806-4.596,4.253
	c-1.221,1.209-2.139,2.723-3.23,4.104c-1.225,1.548-2.67,2.93-4.4,3.936c-1.09,0.63-2.289,1.113-3,2.051
	c-0.951,1.26-0.822,1.983-2.074,2.536c-1.098,0.483-2.633,0.424-3.328,1.117c-0.533,0.531-0.574,1.506-0.914,2.344
	c-1.066,2.62-3.357,3.011-5.076,4.477c-1.264,1.075-1.826,2.637-3.293,3.974c-2.811,2.564-11.219,4.904-11.219,4.904l1.793-4.343
	l-3.016-0.211l-0.127,1.809c0,0-1.305,0.131-2.014-0.141c-0.867-0.33-0.842-1.263-1.152-1.862c-0.449-0.876-1.607-1.055-2.518-1.63
	c-0.865-0.547-3.34-11.502-3.33-14.745c0.02-5.853,0.58-18.417,5.678-24.869c0.359-0.455,0.736-0.846,1.109-1.305
	c2.779-3.404,5.367-10.441,8.273-15.338c1.018-1.716,2.074-3.168,3.332-4.632c0.215-0.252,14.105-14.085,9.533-15.335
	c-0.445-0.122-1.119,0.036-1.652,0.195c-0.719,0.214-0.793,0.386-0.723,1.724c0.051,0.992,0.053,2.203-0.387,2.938
	c-1.117,1.865-4.83,0.658-7.145,1.484c-1.074,0.383-1.854,1.207-2.967,1.755c-1.391,0.687-3.307,0.943-5.01,1.146
	c-1.951,0.234-2.17,0.308-2.201,0.741l-0.033,0.484c-0.031,0.433-0.252,0.499-2.205,0.667c-2.879,0.247-6.9,0.299-8.563,1.281
	c-2.104,1.241-5.156,10.371-6.445,14.381c-4.107,12.79-8.109,41.965-11.484,51.474c-0.428,1.195-0.881,2.368-1.398,3.033
	c-0.676,0.864-1.982,1.045-2.713-0.19c-0.709-1.194,0.342-3.494,0.35-5.027c0.004-0.83-0.297-1.438-1.488-1.717
	c-1.178-0.271-3.221-0.225-3.221-0.225l-1.895,23.133c-0.16,1.95-0.248,2.217-0.887,2.654c-0.473,0.324-0.887,0.555-1.227,1.194
	c-0.893,1.688-1.242,6.211-1.242,6.211s0.123-3.127-0.691-4.526c-0.637-1.091-1.842-1.131-2.869-1.448
	c-1.389-0.427-1.525-0.689-1.391-2.642l0.412-5.875l4.908-0.868l0.258-3.717l-4.951,0.474c0,0,0.357-2.458,0.973-3.431
	c0.334-0.531,0.746-0.615,1.186-0.82c0.59-0.276,0.686-0.521,0.959-2.46l0.904-6.447l1.207,0.082l0.168-2.411
	c0.076-1.085,0.021-1.224-0.531-1.382c-0.41-0.116-0.85-0.249-1.15-0.554c-0.645-0.649-0.104-4.699,0.773-5.773
	c0.73-0.895,1.65-1.099,2.172-1.69c1.16-1.319,0.314-4.571,1.041-8.77c0.773-4.429,3.295-9.913,3.295-9.913l-1.766-0.73l0.291-4.22
	c0,0-1.736,0.138-3.055,0.393c-1.297,0.251-3.271,2.176-3.25,3.164c0.021,1.146,0.416,2.694,0.416,2.694l3.703-0.95l-0.127,1.807
	c0,0-0.893-0.165-1.447-0.101c-1.027,0.12-0.893,1.068-1.355,1.682c-1.109,1.472-6.197,0.977-9.307,1.869
	c-0.9,0.259-1.641,0.638-2.35,1.152c-0.957,0.693-1.076,0.988-1.215,2.941l-1.719,24.562l-0.4-0.028
	c-0.182-0.012-0.248,0.196-0.691,2.113c-0.355,1.529-0.988,3.102-1.58,4.425c-1.809,4.05-2.982,4.048-6.084-0.335
	c-4.018-5.674-5.303-10.291-4.93-18.4c0.168-3.583,0.58-8.282,0.58-8.282s-3.713-2.941-5.287-2.795
	c-1.172,0.11-1.158,1.929-1.98,2.793c-1.225,1.289-4.297,0.469-6.434,1.078c-4.223,1.205-10.366,15.931-11.502,18.353
	c-0.833,1.774-1.033,1.963-1.996,1.896l-2.148-0.149l-0.632,9.041l-7.15-1.712l0.139,6.675l-3.014-0.211l0.38-5.425l-3.618-0.253
	l0.59-8.44l2.412,0.168c0,0,1.409-5.892,1.404-8.928c-0.008-5.01-0.344-5.164,3.106-8.399c1.668-1.564,5.311-8.676,7.367-13.651
	c1.081-2.614,2.064-4.962,3.551-7.062c1.838-2.594,4.445-4.81,5.535-7.805c0.469-1.285,0.657-2.718,1.321-3.429
	c0.301-0.321,0.697-0.496,1.104-0.724c1.352-0.758,11.863-17.103,12.613-19.607c0.814-2.722,1.389-5.12,2.617-6.149
	c0.973-0.82,12.029-1.843,13.049-1.209c1.105,0.689,1.969,2.162,2.303,4.362c0.545,3.577-0.701,8.417,0.408,10.986
	c0.324,0.755,0.854,1.313,1.203,2.104c1.139,2.594,0.311,7.683,1.166,10.61c0.438,1.49,0.98,1.738,2.422,1.542
	c2.461-0.333,3.84-0.854,4.209-2.318c0.09-0.369,0.318-0.395,2.271-0.257l4.463,0.312l-0.211,3.014l-4.223-0.295l-0.211,3.016
	l-1.205-0.085l-0.084,1.205l9.045,0.634l1.064-6.591l0.645,0.046c0.287,0.021,0.404-0.145,1.158-1.65
	c0.557-1.115,1.063-1.98,1.164-3.543c0.168-2.539-0.729-6.92-0.729-6.92l-10.859,1.353c-1.943,0.241-2.229,0.271-2.834,0.298
	c-0.453,0.02-0.945,0.004-1.338-0.171c-2.131-0.95-0.441-3.785-1.553-5.253c-0.387-0.509-1.242-0.531-1.74-1.035
	c-1.008-1.023-0.598-5.723-0.398-7.299c1.076-8.452,5.801-5.44,12.908-4.984c3.688,0.238,17.623-6.214,24.504-6.873
	c4.672-0.448,11.131-0.86,11.945-1.709c0.742-0.773,0.744-1.126,2.018-1.504c2.809-0.833,7.402,0.121,9.488-1.317
	c0.41-0.283,0.721-0.657,0.986-1.064c0.357-0.549,0.613-0.595,2.566-0.458l8.887,0.621l-0.17,2.411L407.061,25.039L407.061,25.039z
	 M312.275,72.327L312.275,72.327c0,0,0.93,0.217,1.93,0.137c2.258-0.181,4.855-1.877,4.855-1.877l0.941-13.47l-2.41-0.168
	c0,0-0.18,1.265-0.379,2.346c-0.418,2.273-0.93,3.735-1.934,4.417c-0.484,0.325-1.082,0.473-1.553,0.843
	c-1.039,0.812-1.619,3.388-1.91,5.684c-0.07,0.533-0.135,1.061,0.148,1.228c0.119,0.071,0.301,0.078,0.354,0.26
	C312.371,71.925,312.275,72.327,312.275,72.327L312.275,72.327z M473.041,34.499L473.041,34.499c0,0,1.838,0.225,3.424,0.239
	c2.619,0.024,5.551-0.862,7.316-2.036c0.375-0.248,0.727-0.507,1.184-0.642c1.188-0.349,3.074,0.17,3.721-0.412
	c0.264-0.242,0.318-0.668,0.494-1.078c0.344-0.79,1.146-1.508,1.791-2.307c1.951-2.418,2.229-11.088,4.381-15.627
	c0.625-1.323,8.148-6.583,10.027-7.012c3.68-0.84,6.828-0.133,8.416,4.409c0.631,1.795,0.473,2.162,0.088,3.541
	c-1.023,3.669-1.527,13.011-1.527,13.011s25.416-4.793,27.139-3.799c0.744,0.429,0.832,1.146,1.508,1.558
	c2.822,1.722,6.385-2.186,10.629-2.131c2.313,0.03,4.516,1.682,5.512,1.457c0.639-0.144,0.779-1.062,1.588-1.659
	c0.982-0.725,14.164-0.19,21.25-0.016c1.959,0.049,2.221,0.028,2.637-0.213c0.307-0.181,0.66-0.271,0.996-0.373
	c1.252-0.382,2.195-0.921,2.438-0.213c0.223,0.66-0.17,2.411-0.17,2.411s-10.205-0.795-13.152,0.375
	c-0.656,0.26-0.953,0.619-1.563,0.909c-3.027,1.446-16.355,1.183-16.355,1.183l-0.113,1.617l2.699,1.799l16.609-0.656l0.127-1.808
	l14.467,1.011l-0.141,2.015l-32.979,3.787l-0.066,0.966l1.807,0.125l-0.125,1.81c0,0-2.186-0.405-3.221-0.226
	c-1.102,0.192-0.891,1.076-1.389,1.677c-0.686,0.831-7.32,1.234-11.02,1.583c-1.951,0.185-2.17,0.236-2.191,0.525l-0.02,0.322
	c-0.021,0.289-0.211,0.325-1.889,0.35c-4.211,0.062-6.889,1.416-8.703,3.069c-1.277,1.166-16.572,6.009-18.287,5.79
	c-2.721-0.347-5.266-1.095-5.871-0.411c-0.924,1.05-0.777,4.142-2.043,5.645c-0.447,0.529-1.068,0.861-1.51,1.404
	c-0.979,1.209-1.059,3.591-1.203,6.085c-0.174,3.022-6.25,22.664-7.191,23.258c-1.225,0.771-2.693,1.154-3.291,2.527
	c-0.645,1.488-0.5,4.192-1.268,5.057c-1.281,1.445-2.316-3.2-4.525-3.645c-0.711-0.141-1.342,0.773-2.188,1.345
	c-0.52,0.347-1.117,0.567-1.314,0.229c-0.508-0.861,1.586-5.341,1.586-5.341l-3.617-0.255c0,0,0.771-4.707,0.463-6.632
	c-0.283-1.76-1.861-0.958-2.492-1.916c-0.523-0.796,4.389-17.849,5.25-18.216c0.447-0.19,0.891-0.122,1.129-0.8
	c0.463-1.32,0.379-5.425,0.379-5.425l-1.34-0.095c-0.604-0.041-0.703,0.053-0.957,0.938c-0.191,0.657-0.58,1.289-0.893,1.837
	c-0.533,0.932-0.852,1.622-1.387,2.148c-1.805,1.768-14.043,2.607-15.359,4.24c-1.67,2.075-0.863,6.162-2.514,7.9
	c-0.459,0.481-1.105,0.78-1.551,1.344c-1.557,1.977-0.709,12.053-2.133,13.178c-1.068,0.848-3.066,0.437-3.709,1.626
	c-0.449,0.832-0.24,2.445-0.924,3.264c-0.875,1.045-5.316,1.489-5.48,1.59c-2.227,1.392-3.24,7.732-5.281,9.072
	c-2.357,1.548-1.912-2.264-3.27-5.104c-0.379-0.796-0.932-1.397-1.266-2.111c-1.5-3.182,0.934-14.447,1.363-15.689
	c1.592-4.634,4.504-8.733,5.543-13.843c0.697-3.438,1.146-8.155,2.232-9.638c0.506-0.688,1.18-1.232,1.602-1.843
	c1.664-2.39-1.65-2.019-3.668-4.364c-2.172-2.526,2.443-3.92,5.197-4.992c1.111-0.435,2.213-0.949,2.539-1.7
	c0.307-0.699-0.029-1.216-0.797-1.441c-0.275-0.081-0.293-0.29-0.166-2.098l0.281-4.021l1.205,0.084c0,0,1.629-7.429,1.723-11.196
	c0.043-1.679-0.223-2.631-0.094-3.437c0.162-1.006,0.936-1.786,2.256-2.613c1.971-1.236,12.666-3.886,13.514-3.349
	c0.621,0.395,0.875,1.077,1.518,1.595c0.736,0.592,1.979,0.973,2.828,1.555c0.924,0.635,1.672,3.389,1.504,5.535
	C474.809,25.974,473.041,34.499,473.041,34.499L473.041,34.499z M537.031,37.762L537.031,37.762l2.41,0.169l0.172-2.412
	l-2.412-0.169L537.031,37.762L537.031,37.762z"/>
</svg>
