<?xml version="1.0" encoding="UTF-8" standalone="no"?>
<!-- Generator: Adobe Illustrator 15.0.0, SVG Export Plug-In . SVG Version: 6.00 Build 0)  -->

<svg
   xmlns:dc="http://purl.org/dc/elements/1.1/"
   xmlns:cc="http://creativecommons.org/ns#"
   xmlns:rdf="http://www.w3.org/1999/02/22-rdf-syntax-ns#"
   xmlns:svg="http://www.w3.org/2000/svg"
   xmlns="http://www.w3.org/2000/svg"
   xmlns:sodipodi="http://sodipodi.sourceforge.net/DTD/sodipodi-0.dtd"
   xmlns:inkscape="http://www.inkscape.org/namespaces/inkscape"
   version="1.1"
   id="Layer_1"
   x="0px"
   y="0px"
   width="481.57065"
   height="122.08448"
   viewBox="0 0 481.57062 122.08448"
   enable-background="new 0 0 595.28 150.5"
   xml:space="preserve"
   inkscape:version="0.48.4 r9939"
   sodipodi:docname="apiwatch-logo-RGB.svg"
   inkscape:export-filename="d:\Documents and Settings\s0030382\Bureau\apiwatch_webpage\img\apiwatch-logo.png"
   inkscape:export-xdpi="145.22731"
   inkscape:export-ydpi="145.22731"><metadata
   id="metadata3074"><rdf:RDF><cc:Work
       rdf:about=""><dc:format>image/svg+xml</dc:format><dc:type
         rdf:resource="http://purl.org/dc/dcmitype/StillImage" /><dc:title /></cc:Work></rdf:RDF></metadata><defs
   id="defs3072" /><sodipodi:namedview
   pagecolor="#ffffff"
   bordercolor="#666666"
   borderopacity="1"
   objecttolerance="10"
   gridtolerance="10"
   guidetolerance="10"
   inkscape:pageopacity="0"
   inkscape:pageshadow="2"
   inkscape:window-width="1600"
   inkscape:window-height="1177"
   id="namedview3070"
   showgrid="false"
   fit-margin-top="5"
   inkscape:zoom="2.1233704"
   inkscape:cx="267.97143"
   inkscape:cy="-19.84029"
   inkscape:window-x="1596"
   inkscape:window-y="-4"
   inkscape:window-maximized="1"
   inkscape:current-layer="Layer_1"
   fit-margin-bottom="5"
   fit-margin-left="15"
   fit-margin-right="5" />
<g
   id="g3038"
   transform="matrix(0.80692976,0,0,0.80692976,4.2702414,0.70896777)">
	<g
   id="g3040">
		<linearGradient
   id="SVGID_1_"
   gradientUnits="userSpaceOnUse"
   x1="134.6777"
   y1="-2.3413"
   x2="82.252098"
   y2="159.0081">
			<stop
   offset="0"
   style="stop-color:#008FFE"
   id="stop3043" />
			<stop
   offset="0.2501"
   style="stop-color:#0072F1"
   id="stop3045" />
			<stop
   offset="0.5477"
   style="stop-color:#0055E4"
   id="stop3047" />
			<stop
   offset="0.8078"
   style="stop-color:#0044DD"
   id="stop3049" />
			<stop
   offset="1"
   style="stop-color:#003EDA"
   id="stop3051" />
		</linearGradient>
		<path
   clip-rule="evenodd"
   d="m 59.632,30.739 c -3.068,0 -6.138,0 -9.206,0 0,-4.398 0,-8.797 0,-13.195 -6.238,0 -12.479,0 -18.718,0 0,4.398 0,8.797 0,13.195 -3.068,0 -6.137,0 -9.206,0 0,4.398 0,8.796 0,13.195 -3.068,0 -6.137,0 -9.205,0 0,30.886 0,61.783 0,92.67 6.238,0 12.479,0 18.718,0 0,-13.194 0,-26.391 0,-39.584 6.034,0 12.07,0 18.105,0 0,13.193 0,26.39 0,39.584 6.238,0 12.479,0 18.718,0 0,-30.887 0,-61.784 0,-92.67 -3.068,0 -6.137,0 -9.206,0 0,-4.399 0,-8.797 0,-13.195 z m -9.512,52.78 c -6.035,0 -12.071,0 -18.105,0 0,-13.092 0,-26.188 0,-39.278 6.034,0 12.07,0 18.105,0 0,13.089 0,26.186 0,39.278 z m 83.464,-65.976 c -15.443,0 -30.892,0 -46.336,0 0,39.682 0,79.377 0,119.06 6.239,0 12.48,0 18.719,0 0,-17.591 0,-35.188 0,-52.778 9.205,0 18.412,0 27.617,0 0,-4.398 0,-8.797 0,-13.196 3.068,0 6.137,0 9.206,0 0,-13.295 0,-26.595 0,-39.89 -3.068,0 -6.138,0 -9.206,0 0,-4.399 0,-8.798 0,-13.196 z m -9.513,52.779 c -6.035,0 -12.07,0 -18.104,0 0,-13.091 0,-26.187 0,-39.278 6.034,0 12.07,0 18.104,0 0,13.092 0,26.187 0,39.278 z m 71.804,-39.278 c 0,-4.5 0,-9.001 0,-13.501 -12.376,0 -24.755,0 -37.13,0 0,4.5 0,9.001 0,13.501 3.068,0 6.138,0 9.206,0 0,30.785 0,61.581 0,92.365 -3.068,0 -6.138,0 -9.206,0 0,4.396 0,8.798 0,13.194 12.375,0 24.754,0 37.13,0 0,-4.396 0,-8.798 0,-13.194 -3.07,0 -6.138,0 -9.207,0 0,-30.784 0,-61.58 0,-92.365 3.069,0 6.138,0 9.207,0 z"
   id="path3053"
   style="fill:url(#SVGID_1_);fill-rule:evenodd"
   inkscape:connector-curvature="0" />
	</g>
</g>
<linearGradient
   id="SVGID_2_"
   gradientUnits="userSpaceOnUse"
   x1="316.89651"
   y1="-23.3242"
   x2="445.7254"
   y2="141.5694"
   gradientTransform="matrix(0.80692976,0,0,0.80692976,1.6100784,0.70896777)">
	<stop
   offset="0"
   style="stop-color:#FF9A00"
   id="stop3056" />
	<stop
   offset="0.164"
   style="stop-color:#FF9500"
   id="stop3058" />
	<stop
   offset="0.3628"
   style="stop-color:#FF8600"
   id="stop3060" />
	<stop
   offset="0.5798"
   style="stop-color:#FF6D00"
   id="stop3062" />
	<stop
   offset="0.808"
   style="stop-color:#FF4C00"
   id="stop3064" />
	<stop
   offset="1"
   style="stop-color:#FF2900"
   id="stop3066" />
</linearGradient>
<path
   d="m 280.10493,106.39094 0.0694,-0.97073 0.97235,0.0678 -0.0678,0.97235 -0.97397,-0.0694 0,0 0,0 z m -9.80419,-97.4803381 0.0678,-0.973157 -1.45812,-0.101672 -0.0694,0.973158 1.45973,0.101672 0,0 0,0 z m -57.97952,53.1427811 -0.0717,-11.058167 c -0.01,-1.580775 -0.0202,-1.837379 -0.10812,-2.571684 -0.0654,-0.545485 -0.20335,-1.227341 -0.46803,-1.570286 -0.38651,-0.500296 -1.04416,-0.280005 -1.41454,-0.848083 -0.71736,-1.098231 -0.36716,-5.142564 -0.36716,-5.142564 l -6.97671,-0.488192 -15.43334,29.719223 -1.62515,-0.112969 c 0,0 -0.0492,-3.815971 0.4083,-5.848627 0.34294,-1.522678 0.97074,-2.038305 1.62435,-3.429453 0.56888,-1.20878 1.15633,-3.076823 0.79806,-3.235787 -0.12912,-0.05648 -0.37846,0.104896 -0.48739,-0.03389 -0.0968,-0.124267 -0.0799,-0.493841 -0.1969,-0.743183 -0.13233,-0.280005 -0.43735,-0.404271 -0.67782,-0.582603 -1.16116,-0.851311 -0.85131,-2.892036 -1.45086,-4.690683 -0.30582,-0.914251 -7.57222,-5.845398 -8.53247,-5.789721 -0.91102,0.05245 -1.67116,0.368767 -2.42886,0.757707 -1.02238,0.525312 -1.14826,0.758515 -1.25881,2.336062 l -4.03062,57.638187 c -0.11054,1.57674 -0.0726,1.78411 0.37281,2.07541 1.76314,1.15391 0.77143,1.95762 2.09559,4.92147 0.11701,0.26145 0.26064,0.41234 0.75368,0.5471 0.43009,0.11701 1.12325,0.21949 1.12325,0.21949 0,0 -0.59794,2.57652 -0.20336,2.92028 0.13477,0.11619 0.38249,-0.0241 0.56809,-0.22837 0.55113,-0.60036 0.55032,-1.74378 1.10307,-2.36027 0.82387,-0.91748 3.9951,-0.58583 4.38969,-2.20454 0.10088,-0.41475 -0.0153,-0.92312 0.2195,-1.12485 0.25902,-0.21948 0.94733,-0.0678 1.41373,0.0186 0.62779,0.117 0.7569,-0.0354 1.29512,-1.52348 1.41213,-3.90231 2.71452,-7.99184 4.64469,-11.54878 3.29793,-6.077786 9.21353,-15.995761 9.46287,-17.702418 0.25983,-1.786542 0.26064,-3.736085 0.26064,-3.736085 l 2.91866,0.204154 -2.61041,24.300689 c -0.16946,1.57028 -0.16785,1.88659 0.0193,3.14218 0.11781,0.79562 0.64151,2.67497 1.1757,3.1672 0.1517,0.14121 0.34617,0.23159 0.49707,0.40185 0.23643,0.26467 0.37038,0.72704 0.45591,1.12405 0.11701,0.5358 0.2445,0.58906 1.27414,0.52934 0.76416,-0.046 1.94632,-0.13636 2.26102,0.30261 0.22917,0.31954 0,0.9207 0.16381,1.23057 0.59552,1.13534 3.7022,-1.46539 3.99753,-1.95116 1.32579,-2.18033 1.187,-5.52344 2.42241,-6.36748 0.2574,-0.17511 0.57211,-0.24289 0.87389,-0.41961 1.48718,-0.8739 3.91362,-7.564966 4.33483,-9.955896 0.27436,-1.56141 0.32036,-1.73248 0.46722,-1.72359 l 0.32439,0.0226 c 0,0 -0.0371,-2.56441 0.55032,-3.67717 0.50514,-0.957029 1.47426,-0.835169 2.06574,-1.480719 0.84243,-0.91909 0.92474,-3.387492 1.73974,-4.108887 0.37845,-0.33649 0.91829,-0.292915 1.2233,-0.608425 0.91022,-0.938459 -0.22998,-5.036049 0.40831,-5.838137 0.27193,-0.342138 0.86907,-0.08312 1.46942,-0.202539 0.75609,-0.149282 4.46877,-6.747546 4.81495,-8.55507 0.29776,-1.559795 0.26226,-2.766961 0.76577,-3.92652 0.88198,-2.030235 3.41574,-3.916837 4.48815,-6.254512 1.12163,-2.44419 0.64393,-5.379801 2.01813,-7.163923 1.27737,-1.655012 4.14843,-2.318309 5.24263,-4.137129 0.71897,-1.193449 0.67137,-2.887194 1.50492,-4.025773 0.88278,-1.203938 2.75244,-1.787349 3.57954,-3.173653 0.89488,-1.502504 0.5705,-3.947501 1.79864,-4.761693 0.73109,-0.484966 2.00603,-0.39459 2.51359,-1.052237 0.24127,-0.312282 0.31067,-0.79079 0.61004,-1.128895 0.34376,-0.38894 0.99575,-0.593093 1.51945,-0.948142 0.81983,-0.551941 1.3274,-1.470226 2.06331,-2.006027 1.01997,-0.745604 2.47729,-0.752866 3.48433,-1.484751 0.90619,-0.658455 1.45005,-1.903547 2.25214,-2.781487 1.51784,-1.660661 2.77665,-1.558989 2.96305,-4.676158 0.12749,-2.131909 -0.59874,-5.41934 -0.59874,-5.41934 l 1.88822,0.998978 c 0.84646,0.448654 0.92797,0.568886 0.81338,1.19587 -0.40347,2.160151 0.19044,2.407878 4.86337,0.977999 1.63725,-0.500296 4.0064,-2.282803 4.16698,-3.134922 0.0977,-0.534188 0.0807,-1.167627 0.0807,-1.167627 l -2.91866,-0.204153 -0.10248,1.459735 -0.97074,-0.06779 0.13394,-1.947122 -1.94469,-0.135564 0.16865,-2.4320861 c 0,0 -1.93664,-0.35747 -2.68709,0.06133 -0.42201,0.235624 -0.46962,0.718168 -0.61487,1.136964 -0.27275,0.7722321 -4.53898,2.7637341 -7.07032,3.2995361 -1.76637,0.373608 -14.24393,7.837709 -14.50294,8.673689 -0.51241,1.662275 -0.97479,3.835336 -1.75992,4.195227 -1.03852,0.474474 -2.93803,-0.19447 -3.94831,0.538222 -1.14019,0.827103 -1.14746,3.440749 -2.49503,4.225084 -1.06515,0.619722 -1.41374,0.26306 -1.95276,1.362904 -0.64475,1.312876 -0.48658,3.218037 -1.4081,4.221857 -0.372,0.4075 -0.9207,0.666523 -1.28463,1.111143 -0.3841,0.469633 -0.56324,1.144226 -0.95945,1.420196 -0.65603,0.457529 -1.90757,-0.169456 -2.85087,-0.08957 -0.92071,0.07827 -1.54931,0.82791 -2.20939,1.70585 -4.77862,6.347309 -12.28872,21.419143 -12.28872,21.419143 l 0,0 0,0 z m 117.7585,-41.139701 0,0 c 0,0 -0.0807,0.431708 -0.0549,0.778688 0.0694,0.883587 0.83194,1.215235 1.52995,1.621928 1.05464,0.614881 1.95922,1.401637 2.95336,1.819628 3.46415,1.458121 4.30093,-1.026416 6.8355,-3.055844 1.72924,-1.386305 4.52929,-1.996345 6.23514,-3.36167 0.32116,-0.25741 0.60521,-0.543063 0.82712,-0.880359 0.30259,-0.455916 0.51238,-0.493843 2.08832,-0.384099 l 6.19561,0.433321 -0.34053,4.864173 1.88015,1.109529 c 0.84486,0.499488 0.94249,0.718167 0.97073,2.185165 0.0202,1.086934 0.2316,2.633819 -0.37198,3.234174 -0.35344,0.349401 -0.98042,0.378451 -1.4436,0.620529 -1.22897,0.647965 -1.30482,7.665832 -2.69031,8.816515 -0.37038,0.308247 -0.85856,0.48093 -1.24186,0.822261 -0.58825,0.523697 -0.92233,1.447632 -1.52591,1.989889 -0.45995,0.413955 -1.07483,0.606811 -1.65179,0.894885 -1.34918,0.673786 -2.49825,1.870464 -3.60293,2.97273 -1.12083,1.118404 -1.27979,1.242671 -1.57432,1.253968 -1.31449,0.046 -2.15128,-1.159558 -3.08894,-3.39556 -0.71251,-1.690519 -1.47667,-3.928135 -1.47667,-3.928135 0,0 -3.41493,5.351559 -5.9035,7.555284 -0.48415,0.428479 -0.93443,0.739148 -1.25962,1.172469 -0.74237,0.987683 -0.84001,2.614453 -1.46136,3.831302 -0.36875,0.719782 -0.9207,1.29593 -1.3645,1.987468 -1.24349,1.933405 -1.64534,4.772182 -3.01147,6.270652 -0.4196,0.457529 -0.92797,0.79079 -1.26849,1.402443 -1.07967,1.936632 -0.46802,6.669275 -0.46802,6.669275 0,0 3.07359,-2.9461 5.36769,-4.151653 1.17409,-0.617302 2.14644,-0.775461 2.55313,-1.376622 0.33406,-0.49142 0.29292,-1.278177 0.64958,-1.625157 0.48819,-0.472054 1.71634,-0.133951 2.74518,-0.384906 1.94631,-0.471247 2.83716,-2.611224 4.15891,-4.06854 1.1297,-1.250741 2.76616,-2.237615 3.61989,-3.557753 0.93119,-1.438755 0.93603,-3.276942 2.0504,-4.062892 1.16038,-0.817419 3.52064,-0.496261 4.67616,-1.413741 0.50433,-0.399429 2.02863,-2.597506 3.10185,-1.471033 0.65442,0.688312 -2.12304,2.887196 -2.69677,3.623922 -0.5011,0.639089 -0.67458,1.26688 -0.10893,1.557375 0.8618,0.443004 3.40444,0.238851 3.40444,0.238851 0,0 0.004,0.629406 -0.0848,1.216043 -0.44301,2.911403 -3.33828,4.862559 -3.05263,5.681594 0.10733,0.309052 0.66815,0.465597 1.0482,0.606809 0.51563,0.190436 0.56889,0.31551 0.53097,1.257197 -0.0266,0.698801 -0.0202,1.619509 -0.43493,2.041533 -0.25257,0.256604 -0.6633,0.326 -1.01352,0.496262 -1.27333,0.621335 -1.73327,2.572492 -2.6806,3.950728 -0.99414,1.450053 -2.52812,2.264244 -3.70866,3.431872 -0.98526,0.975578 -1.72602,2.197269 -2.60639,3.311639 -0.98848,1.249127 -2.15449,2.364304 -3.55048,3.176076 -0.87955,0.508366 -1.84707,0.898113 -2.42079,1.655014 -0.7674,1.016731 -0.6633,1.600141 -1.67357,2.046374 -0.88601,0.389746 -2.12464,0.342137 -2.68547,0.901339 -0.43009,0.428481 -0.46317,1.215237 -0.73753,1.891444 -0.86019,2.114159 -2.70886,2.429659 -4.09598,3.612628 -1.01996,0.86744 -1.47345,2.12787 -2.65721,3.20674 -2.26828,2.06896 -9.05295,3.95719 -9.05295,3.95719 l 1.44684,-3.50451 -2.43372,-0.17026 -0.10248,1.45973 c 0,0 -1.05305,0.10569 -1.62516,-0.11376 -0.69961,-0.2663 -0.67944,-1.01917 -0.92959,-1.50251 -0.36231,-0.70687 -1.29673,-0.85132 -2.03184,-1.31531 -0.698,-0.44138 -2.69516,-9.281295 -2.68709,-11.898168 0.0161,-4.722961 0.46803,-14.861226 4.58176,-20.067536 0.28968,-0.367153 0.5939,-0.682663 0.89488,-1.053045 2.24246,-2.746788 4.33079,-8.425153 6.67573,-12.376688 0.82146,-1.384692 1.67357,-2.556353 2.68869,-3.737699 0.17349,-0.203346 11.38175,-11.365605 7.69246,-12.374268 -0.35909,-0.09845 -0.90295,0.02905 -1.33305,0.157351 -0.58017,0.172684 -0.63989,0.311475 -0.5834,1.391148 0.0411,0.800474 0.0428,1.777667 -0.31229,2.37076 -0.90134,1.504924 -3.89746,0.53096 -5.7655,1.197483 -0.86666,0.309054 -1.49605,0.973965 -2.39417,1.416162 -1.12244,0.554361 -2.66852,0.760935 -4.04272,0.924741 -1.57432,0.188822 -1.75104,0.248534 -1.77605,0.597935 l -0.0266,0.390555 c -0.025,0.3494 -0.20336,0.402658 -1.77928,0.538222 -2.32315,0.199311 -5.56782,0.241271 -6.90974,1.033677 -1.69779,1.001399 -4.16053,8.368668 -5.20066,11.604456 -3.31407,10.320632 -6.54341,33.862808 -9.26679,41.535904 -0.34537,0.96427 -0.71091,1.91081 -1.12809,2.44742 -0.54548,0.69718 -1.59933,0.84324 -2.1892,-0.15332 -0.57211,-0.96348 0.27597,-2.81942 0.28243,-4.05644 0.003,-0.66975 -0.23966,-1.16036 -1.20072,-1.3855 -0.95055,-0.21868 -2.59912,-0.18156 -2.59912,-0.18156 l -1.52913,18.666706 c -0.12911,1.57351 -0.20011,1.78896 -0.71575,2.1416 -0.38166,0.26144 -0.71574,0.44785 -0.99009,0.96347 -0.7206,1.3621 -1.00221,5.01184 -1.00221,5.01184 0,0 0.0993,-2.52327 -0.55758,-3.65217 -0.51402,-0.88035 -1.48637,-0.91264 -2.31509,-1.16843 -1.12083,-0.34455 -1.23057,-0.55598 -1.12244,-2.1319 l 0.33245,-4.74072 3.96041,-0.70042 0.20819,-2.99935 -3.99511,0.38248 c 0,0 0.28807,-1.98343 0.78514,-2.76858 0.26952,-0.42847 0.60197,-0.49625 0.95702,-0.66168 0.47609,-0.2227 0.55355,-0.42041 0.77385,-1.985046 l 0.72946,-5.20228 0.97396,0.0661 0.13557,-1.945499 c 0.0613,-0.87552 0.017,-0.98768 -0.42848,-1.11517 -0.33084,-0.0936 -0.68588,-0.20093 -0.92797,-0.44705 -0.52047,-0.52369 -0.0839,-3.791757 0.62376,-4.658399 0.58906,-0.722203 1.33144,-0.886817 1.75265,-1.363712 0.93605,-1.06434 0.25338,-3.688477 0.84001,-7.076775 0.62376,-3.573891 2.65884,-7.999094 2.65884,-7.999094 l -1.42504,-0.589058 0.23482,-3.405244 c 0,0 -1.40083,0.111356 -2.46517,0.317123 -1.04659,0.202539 -2.63947,1.755879 -2.62253,2.553126 0.017,0.924742 0.3357,2.17387 0.3357,2.17387 l 2.98805,-0.766584 -0.10248,1.458121 c 0,0 -0.7206,-0.133143 -1.16764,-0.08151 -0.82871,0.09684 -0.72059,0.8618 -1.09339,1.357256 -0.89489,1.187801 -5.00055,0.78837 -7.51009,1.508152 -0.72623,0.208994 -1.32417,0.514821 -1.89629,0.929582 -0.77223,0.559202 -0.86826,0.797247 -0.98042,2.373181 l -1.38711,19.819824 -0.32278,-0.0226 c -0.14686,-0.01 -0.20011,0.15816 -0.55758,1.70504 -0.28646,1.2338 -0.79725,2.503086 -1.27495,3.570666 -1.45974,3.26807 -2.40627,3.26645 -4.90936,-0.27032 -3.24224,-4.578526 -4.27915,-8.304116 -3.97817,-14.847517 0.13557,-2.891229 0.46803,-6.682992 0.46803,-6.682992 0,0 -2.99614,-2.37318 -4.26624,-2.255368 -0.94573,0.08877 -0.93442,1.556567 -1.59772,2.253754 -0.9885,1.040132 -3.46738,0.37845 -5.1918,0.86987 -3.40765,0.972351 -8.36462,12.855217 -9.2813,14.809587 -0.67217,1.4315 -0.83356,1.58401 -1.61063,1.52994 l -1.73328,-0.12022 -0.50999,7.295436 -5.76954,-1.38145 0.11216,5.38624 -2.43208,-0.17025 0.30662,-4.3776 -2.91946,-0.20415 0.47609,-6.810486 1.94631,0.13556 c 0,0 1.13696,-4.75443 1.13294,-7.204269 -0.006,-4.042724 -0.27759,-4.166991 2.50631,-6.77741 1.34596,-1.262037 4.28561,-7.000923 5.94465,-11.015397 0.8723,-2.109315 1.6655,-4.003986 2.86541,-5.698539 1.48314,-2.093176 3.5868,-3.881331 4.46636,-6.298086 0.37844,-1.036905 0.53015,-2.193236 1.06595,-2.766963 0.24289,-0.259025 0.56243,-0.400237 0.89086,-0.584217 1.09096,-0.611652 9.5726,-13.80092 10.1778,-15.821472 0.65683,-2.196462 1.12083,-4.13148 2.11173,-4.96181 0.78514,-0.661683 9.70657,-1.487172 10.52963,-0.975579 0.89166,0.555975 1.58885,1.744583 1.85835,3.519828 0.43979,2.886388 -0.56565,6.791928 0.32924,8.864931 0.26144,0.609231 0.68911,1.059499 0.97073,1.697779 0.9191,2.093176 0.25095,6.199641 0.94089,8.561525 0.35344,1.202325 0.79078,1.402444 1.95438,1.244287 1.98586,-0.268709 3.09861,-0.68912 3.39637,-1.870464 0.0726,-0.297758 0.2566,-0.318737 1.83253,-0.207381 l 3.60133,0.251762 -0.17026,2.432086 -3.40767,-0.238044 -0.17026,2.4337 -0.97235,-0.06859 -0.0678,0.972351 7.29868,0.511593 0.85858,-5.318474 0.52046,0.03712 c 0.2316,0.01694 0.32601,-0.117005 0.93443,-1.331434 0.44946,-0.899726 0.85777,-1.597721 0.93927,-2.858952 0.13556,-2.048795 -0.58825,-5.583954 -0.58825,-5.583954 l -8.76245,1.091776 c -1.56787,0.19447 -1.79865,0.218678 -2.28684,0.240464 -0.36554,0.01613 -0.76256,0.0032 -1.07968,-0.137984 -1.71957,-0.766584 -0.35586,-3.054229 -1.25316,-4.238802 -0.31228,-0.410728 -1.0022,-0.42848 -1.40405,-0.835172 -0.8134,-0.825489 -0.48255,-4.61806 -0.32116,-5.889781 0.86826,-6.820171 4.68099,-4.389698 10.41585,-4.021738 2.97596,0.192049 14.22052,-5.014261 19.773,-5.546028 3.76998,-0.361505 8.98194,-0.693959 9.63878,-1.379043 0.59874,-0.623757 0.60036,-0.908603 1.62838,-1.213623 2.26667,-0.672172 5.97291,0.09764 7.65616,-1.062725 0.33084,-0.228363 0.58179,-0.530154 0.79563,-0.858574 0.28807,-0.443005 0.49464,-0.480123 2.07057,-0.369574 l 7.1712,0.501104 -0.13719,1.945506 -0.97154,-0.07262 0,0 z m -76.48566,38.158095 0,0 c 0,0 0.75044,0.175103 1.55738,0.110549 1.82204,-0.146054 3.91765,-1.514606 3.91765,-1.514606 l 0.75931,-10.869345 -1.9447,-0.135564 c 0,0 -0.14525,1.020766 -0.30583,1.893057 -0.33729,1.834152 -0.75044,3.013883 -1.5606,3.564209 -0.39054,0.262253 -0.8731,0.381678 -1.25315,0.680242 -0.83841,0.655226 -1.30643,2.733878 -1.54124,4.586588 -0.0565,0.430094 -0.10894,0.856152 0.11942,0.99091 0.096,0.0573 0.24289,0.06294 0.28565,0.209802 0.0436,0.159772 -0.0339,0.484158 -0.0339,0.484158 l 0,0 z m 129.72687,-30.524539 0,0 c 0,0 1.48315,0.18156 2.76294,0.192856 2.11335,0.01937 4.47925,-0.695573 5.90349,-1.642909 0.3026,-0.200118 0.58664,-0.409113 0.95541,-0.518049 0.95863,-0.281618 2.48049,0.137178 3.00258,-0.332456 0.21303,-0.195276 0.2566,-0.539029 0.39863,-0.869869 0.27758,-0.637475 0.92474,-1.21685 1.44521,-1.861587 1.57431,-1.951157 1.79864,-8.947237 3.53516,-12.609891 0.50433,-1.0675691 6.57486,-5.3120191 8.09108,-5.6581921 2.9695,-0.6778221 5.50972,-0.107322 6.79112,3.557753 0.50917,1.4484401 0.38168,1.7445831 0.0711,2.8573391 -0.82549,2.960625 -1.23219,10.498962 -1.23219,10.498962 0,0 20.50894,-3.867614 21.89927,-3.065525 0.60036,0.346173 0.67136,0.924741 1.21686,1.257196 2.27714,1.389533 5.15224,-1.763948 8.57685,-1.719568 1.86643,0.02421 3.6441,1.357256 4.4478,1.175698 0.51563,-0.116198 0.6286,-0.85696 1.28141,-1.338697 0.7924,-0.585024 11.42935,-0.153317 17.14725,-0.01292 1.58078,0.03954 1.7922,0.02259 2.12787,-0.171876 0.24773,-0.146054 0.53258,-0.218678 0.8037,-0.300984 1.01028,-0.308248 1.77122,-0.743183 1.9673,-0.171876 0.17995,0.532574 -0.13719,1.945506 -0.13719,1.945506 0,0 -8.2347,-0.641508 -10.61272,0.3026 -0.52936,0.209801 -0.76901,0.499489 -1.26124,0.733499 -2.44258,1.166821 -13.19733,0.954597 -13.19733,0.954597 l -0.0912,1.304806 2.17791,1.451666 13.40229,-0.529345 0.10249,-1.458929 11.67385,0.815805 -0.11378,1.625964 -26.61173,3.055843 -0.0533,0.779495 1.45812,0.10086 -0.10088,1.460544 c 0,0 -1.76394,-0.326807 -2.59912,-0.182368 -0.88923,0.154931 -0.71897,0.868257 -1.12082,1.353222 -0.55355,0.670559 -5.90672,0.995751 -8.89237,1.27737 -1.57431,0.149282 -1.75104,0.190435 -1.76798,0.423638 l -0.0161,0.259832 c -0.017,0.233203 -0.17028,0.262252 -1.5243,0.282425 -3.39798,0.05002 -5.55894,1.142613 -7.02271,2.476467 -1.03044,0.940881 -13.37244,4.848841 -14.75633,4.672124 -2.19564,-0.280005 -4.24929,-0.883588 -4.73748,-0.331648 -0.7456,0.847276 -0.62698,3.342303 -1.64856,4.555119 -0.3607,0.426865 -0.86179,0.694765 -1.21846,1.132928 -0.78998,0.975579 -0.85453,2.897685 -0.97074,4.910169 -0.1404,2.438541 -5.04332,18.288255 -5.80263,18.767572 -0.98849,0.622143 -2.17306,0.931196 -2.6556,2.039111 -0.52048,1.200712 -0.40347,3.38265 -1.02319,4.080644 -1.03368,1.166013 -1.86885,-2.582175 -3.65135,-2.941259 -0.57374,-0.113777 -1.08291,0.623757 -1.76557,1.08532 -0.41961,0.280005 -0.90134,0.457531 -1.06031,0.184787 -0.40992,-0.694766 1.27979,-4.309811 1.27979,-4.309811 l -2.91866,-0.205767 c 0,0 0.62215,-3.798219 0.3736,-5.351559 -0.22835,-1.420196 -1.50169,-0.773038 -2.01086,-1.546078 -0.42203,-0.642315 3.54161,-14.402888 4.23638,-14.699031 0.3607,-0.153317 0.71898,-0.09845 0.91102,-0.645544 0.37361,-1.065147 0.30583,-4.377594 0.30583,-4.377594 l -1.08129,-0.07666 c -0.48738,-0.03308 -0.56727,0.04276 -0.77223,0.7569 -0.15412,0.530152 -0.46802,1.040133 -0.72058,1.48233 -0.4301,0.752058 -0.68751,1.30884 -1.11921,1.733284 -1.45651,1.426652 -11.33172,2.103667 -12.39364,3.421383 -1.34758,1.674379 -0.69638,4.972302 -2.02863,6.374745 -0.37037,0.388133 -0.89165,0.629405 -1.25154,1.084513 -1.25638,1.5953 -0.57212,9.725925 -1.72118,10.633721 -0.8618,0.684276 -2.47404,0.352628 -2.99291,1.312067 -0.36231,0.671367 -0.19366,1.972944 -0.74559,2.63382 -0.70608,0.843241 -4.28964,1.201518 -4.42199,1.283017 -1.79703,1.123247 -2.61445,6.239182 -4.26139,7.320468 -1.90194,1.249127 -1.54285,-1.826889 -2.63866,-4.11857 -0.30583,-0.642316 -0.75206,-1.127281 -1.02158,-1.703429 -1.21039,-2.56765 0.75368,-11.657714 1.09986,-12.659921 1.28463,-3.739312 3.6344,-7.046917 4.47281,-11.170328 0.56243,-2.774225 0.92474,-6.580513 1.80106,-7.77719 0.40831,-0.555167 0.95218,-0.994136 1.2927,-1.487172 1.34273,-1.928561 -1.33143,-1.62919 -2.95982,-3.52144 -1.75265,-2.038305 1.97134,-3.163165 4.19362,-4.028194 0.89649,-0.351014 1.78573,-0.765776 2.0488,-1.371781 0.24773,-0.564044 -0.0235,-0.981227 -0.64313,-1.162785 -0.22191,-0.06535 -0.23642,-0.23401 -0.13395,-1.692939 l 0.22674,-3.244665 0.97236,0.06779 c 0,0 1.31449,-5.994681 1.39034,-9.034386 0.0347,-1.354834 -0.17995,-2.123031 -0.0759,-2.773417 0.13071,-0.811771 0.75528,-1.441176 1.82043,-2.108507 1.59046,-0.997366 10.22058,-3.135729 10.90485,-2.702408 0.5011,0.318737 0.70607,0.869064 1.22492,1.287054 0.5939,0.477702 1.59691,0.785141 2.282,1.254775 0.74561,0.512401 1.34919,2.734685 1.21362,4.466356 -0.30582,3.924099 -1.73247,10.803176 -1.73247,10.803176 l 0,0 z m 51.63544,2.633011 0,0 1.9447,0.136372 0.13879,-1.946315 -1.94631,-0.136371 -0.13718,1.946314 0,0 z"
   id="path3068"
   style="fill:url(#SVGID_2_)"
   inkscape:connector-curvature="0" />
</svg>