<?xml version="1.0" encoding="UTF-8" standalone="no"?>
<!-- Generator: Adobe Illustrator 15.0.0, SVG Export Plug-In . SVG Version: 6.00 Build 0)  -->

<svg
   xmlns:dc="http://purl.org/dc/elements/1.1/"
   xmlns:cc="http://creativecommons.org/ns#"
   xmlns:rdf="http://www.w3.org/1999/02/22-rdf-syntax-ns#"
   xmlns:svg="http://www.w3.org/2000/svg"
   xmlns="http://www.w3.org/2000/svg"
   xmlns:sodipodi="http://sodipodi.sourceforge.net/DTD/sodipodi-0.dtd"
   xmlns:inkscape="http://www.inkscape.org/namespaces/inkscape"
   version="1.1"
   id="Layer_1"
   x="0px"
   y="0px"
   width="250"
   height="250"
   viewBox="0 0 249.99999 250"
   enable-background="new 0 0 595.28 150.5"
   xml:space="preserve"
   inkscape:version="0.48.2 r9819"
   sodipodi:docname="apiwatch-favicon.svg"
   inkscape:export-filename="D:\Dropbox\devel\apiwatch\war\src\main\webapp\img\favicon.png"
   inkscape:export-xdpi="5.7600002"
   inkscape:export-ydpi="5.7600002"><metadata
   id="metadata3061"><rdf:RDF><cc:Work
       rdf:about=""><dc:format>image/svg+xml</dc:format><dc:type
         rdf:resource="http://purl.org/dc/dcmitype/StillImage" /><dc:title></dc:title></cc:Work></rdf:RDF></metadata><defs
   id="defs3059" /><sodipodi:namedview
   pagecolor="#ffffff"
   bordercolor="#666666"
   borderopacity="1"
   objecttolerance="10"
   gridtolerance="10"
   guidetolerance="10"
   inkscape:pageopacity="0"
   inkscape:pageshadow="2"
   inkscape:window-width="1600"
   inkscape:window-height="1147"
   id="namedview3057"
   showgrid="false"
   fit-margin-top="0"
   fit-margin-left="0"
   fit-margin-right="0"
   fit-margin-bottom="0"
   inkscape:zoom="2.4190296"
   inkscape:cx="190.35892"
   inkscape:cy="76.652767"
   inkscape:window-x="-4"
   inkscape:window-y="-4"
   inkscape:window-maximized="1"
   inkscape:current-layer="Layer_1" />
<g
   id="g3025"
   transform="matrix(1.3735892,0,0,1.3735892,-18.40943,-23.611626)"
   inkscape:export-filename="D:\Dropbox\devel\apiwatch\logo\path3055.png"
   inkscape:export-xdpi="7.7924938"
   inkscape:export-ydpi="7.7924938">
	<g
   id="g3027">
		<linearGradient
   id="SVGID_1_"
   gradientUnits="userSpaceOnUse"
   x1="134.6777"
   y1="-2.3413"
   x2="82.252098"
   y2="159.0081">
			<stop
   offset="0"
   style="stop-color:#008FFE"
   id="stop3030" />
			<stop
   offset="0.2501"
   style="stop-color:#0072F1"
   id="stop3032" />
			<stop
   offset="0.5477"
   style="stop-color:#0055E4"
   id="stop3034" />
			<stop
   offset="0.8078"
   style="stop-color:#0044DD"
   id="stop3036" />
			<stop
   offset="1"
   style="stop-color:#003EDA"
   id="stop3038" />
		</linearGradient>
		<path
   clip-rule="evenodd"
   d="m 59.632,30.739 c -3.068,0 -6.138,0 -9.206,0 0,-4.398 0,-8.797 0,-13.195 -6.238,0 -12.479,0 -18.718,0 0,4.398 0,8.797 0,13.195 -3.068,0 -6.137,0 -9.206,0 0,4.398 0,8.796 0,13.195 -3.068,0 -6.137,0 -9.205,0 0,30.886 0,61.783 0,92.67 6.238,0 12.479,0 18.718,0 0,-13.194 0,-26.391 0,-39.584 6.034,0 12.07,0 18.105,0 0,13.193 0,26.39 0,39.584 6.238,0 12.479,0 18.718,0 0,-30.887 0,-61.784 0,-92.67 -3.068,0 -6.137,0 -9.206,0 0,-4.399 0,-8.797 0,-13.195 z m -9.512,52.78 c -6.035,0 -12.071,0 -18.105,0 0,-13.092 0,-26.188 0,-39.278 6.034,0 12.07,0 18.105,0 0,13.089 0,26.186 0,39.278 z m 83.464,-65.976 c -15.443,0 -30.892,0 -46.336,0 0,39.682 0,79.377 0,119.06 6.239,0 12.48,0 18.719,0 0,-17.591 0,-35.188 0,-52.778 9.205,0 18.412,0 27.617,0 0,-4.398 0,-8.797 0,-13.196 3.068,0 6.137,0 9.206,0 0,-13.295 0,-26.595 0,-39.89 -3.068,0 -6.138,0 -9.206,0 0,-4.399 0,-8.798 0,-13.196 z m -9.513,52.779 c -6.035,0 -12.07,0 -18.104,0 0,-13.091 0,-26.187 0,-39.278 6.034,0 12.07,0 18.104,0 0,13.092 0,26.187 0,39.278 z m 71.804,-39.278 c 0,-4.5 0,-9.001 0,-13.501 -12.376,0 -24.755,0 -37.13,0 0,4.5 0,9.001 0,13.501 3.068,0 6.138,0 9.206,0 0,30.785 0,61.581 0,92.365 -3.068,0 -6.138,0 -9.206,0 0,4.396 0,8.798 0,13.194 12.375,0 24.754,0 37.13,0 0,-4.396 0,-8.798 0,-13.194 -3.07,0 -6.138,0 -9.207,0 0,-30.784 0,-61.58 0,-92.365 3.069,0 6.138,0 9.207,0 z"
   id="path3040"
   style="fill:url(#SVGID_1_);fill-rule:evenodd"
   inkscape:connector-curvature="0" />
	</g>
</g>
<linearGradient
   id="SVGID_2_"
   gradientUnits="userSpaceOnUse"
   x1="316.89651"
   y1="-23.3242"
   x2="445.7254"
   y2="141.5694"
   gradientTransform="matrix(0.73922379,0,0,0.73922379,-147.66709,142.97568)">
	<stop
   offset="0"
   style="stop-color:#FF9A00"
   id="stop3043" />
	<stop
   offset="0.164"
   style="stop-color:#FF9500"
   id="stop3045" />
	<stop
   offset="0.3628"
   style="stop-color:#FF8600"
   id="stop3047" />
	<stop
   offset="0.5798"
   style="stop-color:#FF6D00"
   id="stop3049" />
	<stop
   offset="0.808"
   style="stop-color:#FF4C00"
   id="stop3051" />
	<stop
   offset="1"
   style="stop-color:#FF2900"
   id="stop3053" />
</linearGradient>
<path
   d="m 107.46049,239.79034 0.0636,-0.88929 0.89077,0.0621 -0.0621,0.89076 -0.89223,-0.0636 0,0 0,0 z m -8.981584,-89.30119 0.0621,-0.8915 -1.335773,-0.0932 -0.06358,0.89151 1.337258,0.0932 0,0 0,0 z m -53.114714,48.6838 -0.06584,-10.13032 c -0.0079,-1.44814 -0.01847,-1.68321 -0.09905,-2.3559 -0.05984,-0.49972 -0.186285,-1.12437 -0.428746,-1.43853 -0.354087,-0.45833 -0.956551,-0.25651 -1.29586,-0.77693 -0.657167,-1.00609 -0.336352,-4.71108 -0.336352,-4.71108 l -6.391327,-0.44723 -14.138395,27.22562 -1.488786,-0.10347 c 0,0 -0.0451,-3.49579 0.374044,-5.3579 0.314173,-1.39491 0.88928,-1.86727 1.488049,-3.1417 0.521164,-1.10735 1.059315,-2.81865 0.731101,-2.96428 -0.118279,-0.0518 -0.346699,0.0961 -0.446494,-0.031 -0.08873,-0.11384 -0.07321,-0.45241 -0.180369,-0.68083 -0.121236,-0.2565 -0.400664,-0.37035 -0.620947,-0.53372 -1.063746,-0.77987 -0.779887,-2.64937 -1.329122,-4.29711 -0.280176,-0.83753 -6.936878,-5.35493 -7.81656,-5.30393 -0.834578,0.0481 -1.530933,0.33783 -2.225066,0.69414 -0.936594,0.48124 -1.051915,0.69487 -1.1531828,2.14005 L 6.248867,239.76085 c -0.1013135,1.44444 -0.066522,1.63442 0.3415193,1.90128 1.6152017,1.0571 0.706701,1.79335 1.9197653,4.50853 0.1072065,0.2395 0.2387666,0.37774 0.6904388,0.5012 0.3940006,0.1072 1.0290006,0.20106 1.0290006,0.20106 0,0 -0.547773,2.36034 -0.186286,2.67525 0.123446,0.10642 0.350393,-0.0222 0.520405,-0.2092 0.50489,-0.54998 0.504153,-1.59746 1.010528,-2.16223 0.75474,-0.8405 3.659898,-0.53667 4.021374,-2.01955 0.09236,-0.37997 -0.01405,-0.84568 0.201063,-1.03049 0.237293,-0.20106 0.86785,-0.0621 1.295123,0.017 0.575119,0.10721 0.693397,-0.0325 1.186456,-1.39564 1.293639,-3.5749 2.486747,-7.32128 4.254972,-10.57978 3.021204,-5.56783 8.440454,-14.65363 8.668874,-16.21709 0.23803,-1.63664 0.238767,-3.4226 0.238767,-3.4226 l 2.67378,0.18702 -2.391395,22.26172 c -0.155234,1.43853 -0.15376,1.72831 0.01779,2.87853 0.107886,0.72888 0.587674,2.45053 1.07705,2.90147 0.138972,0.12936 0.31712,0.21215 0.455355,0.36812 0.2166,0.24247 0.33931,0.66604 0.417663,1.02974 0.107207,0.49085 0.223989,0.53964 1.167236,0.48493 0.700048,-0.0421 1.783003,-0.12493 2.071305,0.27721 0.209936,0.29273 0,0.84345 0.150066,1.12732 0.54554,1.04009 3.391553,-1.34243 3.662107,-1.78744 1.214549,-1.99738 1.087398,-5.05999 2.219151,-5.83322 0.23582,-0.16041 0.52411,-0.22251 0.80058,-0.38439 1.362394,-0.80058 3.585238,-6.93023 3.971113,-9.12055 0.251335,-1.4304 0.293469,-1.58712 0.42801,-1.57898 l 0.297164,0.0207 c 0,0 -0.034,-2.34925 0.504153,-3.36864 0.462756,-0.87672 1.350563,-0.7651 1.89242,-1.35648 0.771739,-0.84197 0.847146,-3.10326 1.59376,-3.76412 0.346699,-0.30826 0.841242,-0.26834 1.120659,-0.55737 0.833852,-0.85973 -0.210673,-4.61351 0.374055,-5.34829 0.249113,-0.31344 0.796138,-0.0762 1.34612,-0.18555 0.69266,-0.13675 4.093823,-6.18139 4.410955,-7.83725 0.272775,-1.42892 0.24024,-2.5348 0.701522,-3.59706 0.807969,-1.85988 3.129135,-3.5882 4.111558,-5.72973 1.027527,-2.23911 0.589908,-4.9284 1.848801,-6.56282 1.170193,-1.51616 3.800354,-2.12379 4.802734,-3.79001 0.658651,-1.0933 0.615043,-2.64494 1.378656,-3.68798 0.808706,-1.10292 2.521493,-1.63738 3.279202,-2.90737 0.819789,-1.37643 0.522625,-3.61629 1.647726,-4.36216 0.669734,-0.44428 1.837706,-0.36148 2.302683,-0.96394 0.221031,-0.28608 0.284595,-0.72445 0.558856,-1.03418 0.31491,-0.35631 0.912195,-0.54333 1.391949,-0.86859 0.751057,-0.50563 1.216022,-1.34687 1.890199,-1.83772 0.934384,-0.68304 2.269421,-0.68969 3.191974,-1.36016 0.830147,-0.60321 1.328385,-1.74384 2.063168,-2.54811 1.390477,-1.52132 2.543671,-1.42818 2.71443,-4.2838 0.116794,-1.95303 -0.548509,-4.96462 -0.548509,-4.96462 l 1.729786,0.91515 c 0.775444,0.41101 0.850115,0.52115 0.745141,1.09553 -0.369613,1.9789 0.174454,2.20585 4.455299,0.89595 1.499897,-0.45833 3.670251,-2.09128 3.817361,-2.87189 0.0894,-0.48937 0.0739,-1.06966 0.0739,-1.06966 l -2.673772,-0.18702 -0.09383,1.33726 -0.889296,-0.0621 0.122709,-1.78375 -1.78153,-0.12419 0.154497,-2.22801 c 0,0 -1.77413,-0.32748 -2.461611,0.0562 -0.386611,0.21585 -0.430231,0.6579 -0.563287,1.04155 -0.249861,0.70744 -4.158135,2.53185 -6.47708,3.02269 -1.61816,0.34227 -13.048777,7.18009 -13.28607,7.94592 -0.469408,1.5228 -0.892987,3.51353 -1.612244,3.84323 -0.951383,0.43466 -2.691516,-0.17816 -3.617027,0.49306 -1.044525,0.7577 -1.051178,3.15205 -2.285672,3.87058 -0.975782,0.56773 -1.295124,0.24099 -1.78893,1.24854 -0.590633,1.20272 -0.445746,2.94803 -1.289945,3.86763 -0.340783,0.37331 -0.843452,0.6106 -1.176846,1.0179 -0.351866,0.43024 -0.515973,1.04822 -0.878933,1.30104 -0.600991,0.41914 -1.747522,-0.15524 -2.611678,-0.082 -0.843451,0.0717 -1.419306,0.75844 -2.023991,1.56272 -4.377682,5.81473 -11.257648,19.62194 -11.257648,19.62194 l 0,0 0,0 z m 107.877888,-37.68785 0,0 c 0,0 -0.0739,0.39549 -0.0503,0.71335 0.0636,0.80945 0.76214,1.11328 1.40157,1.48585 0.96617,0.56328 1.79483,1.28403 2.70556,1.66694 3.17349,1.33578 3.94006,-0.9403 6.26196,-2.79944 1.58416,-1.26999 4.14926,-1.82884 5.71198,-3.0796 0.29422,-0.23581 0.55443,-0.4975 0.75771,-0.8065 0.27721,-0.41766 0.46941,-0.4524 1.91312,-0.35187 l 5.67575,0.39696 -0.31196,4.45605 1.7224,1.01643 c 0.77397,0.45758 0.86341,0.65791 0.88928,2.00182 0.0185,0.99573 0.21216,2.41282 -0.34077,2.9628 -0.32378,0.32009 -0.89816,0.3467 -1.32248,0.56847 -1.12584,0.5936 -1.19532,7.02263 -2.46457,8.07677 -0.3393,0.28237 -0.78653,0.44057 -1.13767,0.75326 -0.53889,0.47976 -0.84492,1.32617 -1.39786,1.82293 -0.42136,0.37922 -0.98465,0.5559 -1.5132,0.8198 -1.23598,0.61724 -2.28863,1.71351 -3.30063,2.72329 -1.02678,1.02457 -1.17242,1.13841 -1.44222,1.14876 -1.2042,0.0421 -1.97078,-1.06227 -2.82975,-3.11066 -0.65274,-1.54866 -1.35279,-3.59854 -1.35279,-3.59854 0,0 -3.1284,4.90254 -5.40815,6.92135 -0.44354,0.39253 -0.85603,0.67714 -1.15393,1.0741 -0.68009,0.90481 -0.76953,2.39508 -1.33873,3.50984 -0.33783,0.65939 -0.84347,1.18719 -1.25004,1.82071 -1.13914,1.77117 -1.50728,4.37176 -2.75878,5.7445 -0.38439,0.41914 -0.85011,0.72444 -1.16206,1.28477 -0.98908,1.77414 -0.42874,6.10969 -0.42874,6.10969 0,0 2.81569,-2.69891 4.9173,-3.80331 1.07558,-0.5655 1.96634,-0.71039 2.33892,-1.26112 0.30603,-0.45019 0.26833,-1.17093 0.59507,-1.4888 0.44723,-0.43244 1.57233,-0.12271 2.51484,-0.3526 1.783,-0.4317 2.59911,-2.39213 3.80995,-3.72717 1.03492,-1.14579 2.53406,-2.04986 3.31616,-3.25923 0.85306,-1.31804 0.8575,-3.002 1.87837,-3.722 1.06301,-0.74884 3.22523,-0.45462 4.2838,-1.29511 0.46202,-0.36592 1.85841,-2.37957 2.84158,-1.34761 0.59951,0.63056 -1.9449,2.64494 -2.47048,3.31985 -0.45906,0.58547 -0.618,1.16059 -0.0998,1.4267 0.78948,0.40584 3.11878,0.21881 3.11878,0.21881 0,0 0.005,0.5766 -0.0776,1.11402 -0.40583,2.66711 -3.05817,4.45456 -2.79648,5.20487 0.0983,0.28312 0.61207,0.42653 0.96024,0.55589 0.47237,0.17446 0.52116,0.28904 0.48641,1.15171 -0.0244,0.64017 -0.0185,1.48362 -0.39843,1.87025 -0.23138,0.23507 -0.60764,0.29863 -0.92847,0.45462 -1.1665,0.5692 -1.58786,2.35664 -2.45571,3.61923 -0.91072,1.32839 -2.31598,2.07426 -3.39747,3.14393 -0.90259,0.89372 -1.5812,2.0129 -2.38768,3.03377 -0.90556,1.14432 -1.97373,2.16592 -3.2526,2.90959 -0.80574,0.4657 -1.69208,0.82274 -2.21766,1.51614 -0.70301,0.93143 -0.60764,1.46588 -1.53316,1.87467 -0.81166,0.35705 -1.94637,0.31343 -2.46013,0.82572 -0.394,0.39253 -0.42432,1.11327 -0.67565,1.73273 -0.78802,1.93678 -2.48157,2.2258 -3.75231,3.30951 -0.93437,0.79466 -1.34981,1.94933 -2.43425,2.93768 -2.07796,1.89536 -8.29336,3.62515 -8.29336,3.62515 l 1.32543,-3.21045 -2.2295,-0.15598 -0.0938,1.33726 c 0,0 -0.96469,0.0969 -1.4888,-0.10426 -0.6409,-0.24395 -0.62243,-0.93365 -0.85159,-1.37644 -0.33191,-0.64756 -1.18793,-0.77988 -1.86137,-1.20493 -0.63941,-0.40436 -2.469,-8.50256 -2.46161,-10.89986 0.0147,-4.32667 0.42875,-13.61428 4.19732,-18.38376 0.26537,-0.33634 0.54406,-0.62538 0.8198,-0.96468 2.0543,-2.51632 3.9674,-7.71824 6.11559,-11.33822 0.75253,-1.26851 1.53315,-2.34186 2.46309,-3.42408 0.15894,-0.18629 10.42676,-10.41198 7.04702,-11.33601 -0.32895,-0.0902 -0.82718,0.0266 -1.22119,0.14415 -0.53151,0.1582 -0.58621,0.28535 -0.53446,1.27442 0.0377,0.73331 0.0392,1.62852 -0.28608,2.17185 -0.82571,1.37866 -3.57045,0.48641 -5.28176,1.09701 -0.79392,0.28312 -1.37051,0.89224 -2.19327,1.29733 -1.02826,0.50785 -2.44462,0.69709 -3.70351,0.84716 -1.44223,0.17297 -1.60412,0.22767 -1.62703,0.54776 l -0.0244,0.35778 c -0.0229,0.32009 -0.18628,0.36888 -1.62998,0.49307 -2.12822,0.18258 -5.10064,0.22102 -6.32998,0.94694 -1.55532,0.91738 -3.81144,7.6665 -4.76429,10.63078 -3.036,9.45467 -5.99437,31.02153 -8.48924,38.0508 -0.3164,0.88338 -0.65126,1.75049 -1.03344,2.24207 -0.49971,0.63869 -1.46514,0.7725 -2.00551,-0.14045 -0.52411,-0.88264 0.25281,-2.58284 0.25872,-3.71608 0.003,-0.61355 -0.21954,-1.063 -1.09996,-1.26924 -0.87081,-0.20034 -2.38104,-0.16633 -2.38104,-0.16633 l -1.40083,17.10047 c -0.11827,1.44148 -0.18333,1.63885 -0.6557,1.9619 -0.34964,0.2395 -0.65568,0.41026 -0.90702,0.88262 -0.66013,1.24781 -0.91811,4.59133 -0.91811,4.59133 0,0 0.0909,-2.31156 -0.51081,-3.34573 -0.47088,-0.80649 -1.36165,-0.83606 -2.12083,-1.07039 -1.02679,-0.31565 -1.12732,-0.50934 -1.02826,-1.95304 l 0.30456,-4.34294 3.62811,-0.64164 0.19072,-2.7477 -3.6599,0.35039 c 0,0 0.2639,-1.81701 0.71927,-2.53627 0.2469,-0.39253 0.55145,-0.45463 0.87671,-0.60617 0.43615,-0.20402 0.50711,-0.38513 0.70892,-1.81848 l 0.66827,-4.76578 0.89223,0.0606 0.1242,-1.78227 c 0.0562,-0.80206 0.0155,-0.90482 -0.39253,-1.02161 -0.30309,-0.0858 -0.62835,-0.18407 -0.85011,-0.40953 -0.4768,-0.47975 -0.0768,-3.47361 0.57142,-4.26754 0.53963,-0.66161 1.21972,-0.81241 1.60559,-1.24928 0.8575,-0.97505 0.23211,-3.379 0.76953,-6.483 0.57142,-3.27402 2.43575,-7.32793 2.43575,-7.32793 l -1.30547,-0.53962 0.21511,-3.11953 c 0,0 -1.28329,0.10199 -2.25833,0.29051 -0.95878,0.18555 -2.418,1.60855 -2.40247,2.3389 0.0155,0.84716 0.30751,1.99147 0.30751,1.99147 l 2.73734,-0.70226 -0.0938,1.33578 c 0,0 -0.66012,-0.12198 -1.06966,-0.0747 -0.75918,0.0887 -0.66012,0.7895 -1.00164,1.24338 -0.8198,1.08814 -4.58097,0.72222 -6.87996,1.38161 -0.6653,0.19146 -1.213064,0.47162 -1.737174,0.85158 -0.707442,0.51228 -0.795417,0.73036 -0.898158,2.17406 l -1.270736,18.15681 -0.295691,-0.0207 c -0.134529,-0.009 -0.183327,0.14489 -0.510794,1.56199 -0.262429,1.13027 -0.730352,2.29307 -1.167972,3.27106 -1.337258,2.99386 -2.204372,2.99238 -4.497445,-0.24764 -2.970195,-4.19435 -3.920105,-7.60736 -3.644372,-13.60171 0.124194,-2.64865 0.428746,-6.12226 0.428746,-6.12226 0,0 -2.744733,-2.17406 -3.908274,-2.06613 -0.866366,0.0814 -0.856019,1.42596 -1.463662,2.06466 -0.905543,0.95285 -3.176449,0.34668 -4.756168,0.79687 -3.121735,0.89077 -7.662788,11.77658 -8.502545,13.56698 -0.61578,1.31138 -0.763625,1.4511 -1.475494,1.40156 l -1.587856,-0.11015 -0.467186,6.68332 -5.285446,-1.26554 0.102786,4.93431 -2.228023,-0.15598 0.280901,-4.01029 -2.674505,-0.18702 0.436135,-6.23905 1.783015,0.12419 c 0,0 1.041556,-4.3555 1.037862,-6.59979 -0.0057,-3.7035 -0.254292,-3.81735 2.29603,-6.20873 1.233033,-1.15616 3.926022,-6.41351 5.445859,-10.09115 0.799108,-1.93234 1.525765,-3.66803 2.624994,-5.2204 1.358688,-1.91754 3.285842,-3.55567 4.091601,-5.76964 0.346699,-0.9499 0.48567,-2.00922 0.976508,-2.5348 0.222516,-0.23729 0.515248,-0.36665 0.816106,-0.53519 0.999434,-0.56034 8.769417,-12.64296 9.32383,-14.49397 0.601727,-2.01217 1.026779,-3.78483 1.934554,-4.54548 0.719258,-0.60617 8.892115,-1.3624 9.64613,-0.89373 0.816842,0.50932 1.455525,1.59821 1.702428,3.22449 0.402874,2.6442 -0.518194,6.22205 0.301606,8.12111 0.239503,0.55812 0.631294,0.97061 0.889281,1.55534 0.841983,1.91754 0.229904,5.67945 0.861939,7.84316 0.323784,1.10144 0.72445,1.28477 1.7904,1.13988 1.81924,-0.24615 2.83863,-0.63129 3.11139,-1.71352 0.0665,-0.27277 0.23508,-0.29199 1.67878,-0.18998 l 3.29916,0.23064 -0.15597,2.22802 -3.12175,-0.21807 -0.15597,2.2295 -0.89076,-0.0628 -0.0621,0.89077 6.68628,0.46866 0.78654,-4.87223 0.4768,0.034 c 0.21216,0.0155 0.29865,-0.1072 0.85602,-1.21971 0.41175,-0.82425 0.78579,-1.46367 0.86046,-2.61908 0.12418,-1.87688 -0.5389,-5.11542 -0.5389,-5.11542 l -8.02723,1.00017 c -1.43631,0.17814 -1.64773,0.20032 -2.09496,0.22028 -0.33486,0.0147 -0.69856,0.003 -0.98908,-0.12641 -1.57528,-0.70225 -0.326,-2.79796 -1.14802,-3.88313 -0.28608,-0.37627 -0.91811,-0.39253 -1.28624,-0.7651 -0.74514,-0.75623 -0.442061,-4.23059 -0.29422,-5.3956 0.79541,-6.24793 4.28824,-4.02139 9.54191,-3.6843 2.72625,0.17594 13.02733,-4.59353 18.11393,-5.08069 3.45366,-0.33116 8.2283,-0.63572 8.83003,-1.26332 0.54851,-0.57142 0.54998,-0.83237 1.49175,-1.1118 2.07649,-0.61577 5.47173,0.0894 7.01376,-0.97356 0.30308,-0.2092 0.53299,-0.48567 0.72887,-0.78653 0.2639,-0.40583 0.45315,-0.43984 1.89685,-0.33856 l 6.56949,0.45905 -0.12567,1.78227 -0.89003,-0.0665 0,0 z m -70.068068,34.95642 0,0 c 0,0 0.687481,0.16042 1.426706,0.10132 1.669168,-0.1338 3.588933,-1.38752 3.588933,-1.38752 l 0.695607,-9.95735 -1.781531,-0.12419 c 0,0 -0.133056,0.93512 -0.280164,1.73423 -0.308995,1.68025 -0.687481,2.76099 -1.429653,3.26515 -0.357793,0.24024 -0.799844,0.34964 -1.148015,0.62316 -0.768056,0.60025 -1.196802,2.50449 -1.411918,4.20175 -0.05179,0.394 -0.09984,0.78432 0.10936,0.90776 0.08794,0.0525 0.222504,0.0577 0.261681,0.1922 0.03989,0.14636 -0.03105,0.44354 -0.03105,0.44354 l 0,0 z m 118.842058,-27.96336 0,0 c 0,0 1.35869,0.16633 2.5311,0.17667 1.93603,0.0177 4.10344,-0.63721 5.40816,-1.50506 0.27722,-0.18332 0.53741,-0.37479 0.87524,-0.47458 0.87821,-0.25799 2.27238,0.12566 2.75066,-0.30456 0.19515,-0.17889 0.23507,-0.4938 0.36517,-0.79688 0.25429,-0.58399 0.84716,-1.11476 1.32395,-1.70539 1.44223,-1.78744 1.64773,-8.19652 3.23854,-11.55185 0.46201,-0.97799 6.0232,-4.86631 7.41219,-5.18344 2.72035,-0.62095 5.04743,-0.0984 6.22132,3.25924 0.46645,1.3269 0.34964,1.5982 0.065,2.6176 -0.75623,2.7122 -1.1288,9.61803 -1.1288,9.61803 0,0 18.78812,-3.5431 20.0618,-2.80831 0.54998,0.31713 0.61503,0.84715 1.11474,1.15171 2.0861,1.27295 4.71995,-1.61594 7.85722,-1.57529 1.70982,0.0222 3.33833,1.24338 4.0746,1.07705 0.47236,-0.10641 0.57585,-0.78505 1.17389,-1.22637 0.72592,-0.53594 10.47037,-0.14045 15.7085,-0.0118 1.44814,0.0363 1.64182,0.0207 1.94933,-0.15746 0.22695,-0.1338 0.48789,-0.20032 0.73627,-0.27573 0.92551,-0.28239 1.6226,-0.68083 1.80223,-0.15746 0.16485,0.4879 -0.12566,1.78227 -0.12566,1.78227 0,0 -7.54379,-0.58767 -9.72228,0.27722 -0.48493,0.19219 -0.70448,0.45758 -1.15541,0.67194 -2.23762,1.06893 -12.09001,0.87451 -12.09001,0.87451 l -0.0835,1.19533 1.99518,1.32986 12.27776,-0.48493 0.0938,-1.33652 10.69435,0.74736 -0.10426,1.48954 -24.37886,2.79943 -0.0487,0.71409 1.33577,0.0924 -0.0924,1.338 c 0,0 -1.61595,-0.29939 -2.38104,-0.16707 -0.81463,0.14193 -0.65866,0.79542 -1.02678,1.23969 -0.50712,0.61429 -5.41112,0.9122 -8.14625,1.17019 -1.44222,0.13675 -1.60412,0.17445 -1.61963,0.38809 l -0.0147,0.23803 c -0.0155,0.21364 -0.15598,0.24025 -1.39639,0.25873 -3.11287,0.0458 -5.09252,1.04674 -6.43346,2.26867 -0.94399,0.86194 -12.25042,4.442 -13.5182,4.28011 -2.01142,-0.25651 -3.89274,-0.80945 -4.33997,-0.30381 -0.68304,0.77618 -0.57439,3.06186 -1.51024,4.17291 -0.33043,0.39105 -0.78949,0.63647 -1.11623,1.03787 -0.7237,0.89373 -0.78283,2.65455 -0.88928,4.49817 -0.12863,2.23394 -4.62016,16.75378 -5.31576,17.19287 -0.90555,0.56994 -1.99073,0.85307 -2.43278,1.86803 -0.47681,1.09996 -0.36962,3.09882 -0.93735,3.73825 -0.94694,1.06817 -1.71203,-2.36551 -3.34498,-2.69448 -0.52559,-0.10426 -0.99204,0.57143 -1.61743,0.99427 -0.38439,0.2565 -0.8257,0.41914 -0.97134,0.16927 -0.37551,-0.63647 1.17242,-3.94818 1.17242,-3.94818 l -2.67377,-0.18851 c 0,0 0.56994,-3.47953 0.34226,-4.90253 -0.2092,-1.30104 -1.3757,-0.70818 -1.84215,-1.41636 -0.38661,-0.58842 3.24445,-13.1944 3.88093,-13.46569 0.33043,-0.14046 0.65865,-0.0902 0.83457,-0.59138 0.34227,-0.97578 0.28017,-4.01029 0.28017,-4.01029 l -0.99056,-0.0703 c -0.44648,-0.0304 -0.51967,0.0392 -0.70743,0.69339 -0.14119,0.48567 -0.42875,0.95286 -0.66013,1.35795 -0.394,0.68896 -0.62982,1.19903 -1.02531,1.58785 -1.33429,1.30695 -10.38091,1.92716 -11.35374,3.13431 -1.23449,1.53389 -0.63794,4.5551 -1.85839,5.83987 -0.33931,0.35557 -0.81685,0.5766 -1.14655,0.99352 -1.15097,1.46144 -0.52411,8.90986 -1.57676,9.74148 -0.7895,0.62687 -2.26646,0.32305 -2.74179,1.20199 -0.3319,0.61503 -0.17741,1.8074 -0.68303,2.41282 -0.64682,0.7725 -3.92972,1.10071 -4.05096,1.17537 -1.64624,1.029 -2.39507,5.71568 -3.90383,6.70624 -1.74235,1.14432 -1.4134,-1.6736 -2.41726,-3.773 -0.28017,-0.58842 -0.68896,-1.03269 -0.93586,-1.5605 -1.10884,-2.35222 0.69044,-10.67957 1.00756,-11.59768 1.17684,-3.42556 3.32947,-6.45565 4.09751,-10.23308 0.51525,-2.54145 0.84716,-6.02836 1.64995,-7.12464 0.37406,-0.50858 0.8723,-0.91072 1.18425,-1.36239 1.23006,-1.76674 -1.21973,-1.49249 -2.71147,-3.22597 -1.60561,-1.86729 1.80591,-2.89776 3.84174,-3.6902 0.82127,-0.32157 1.6359,-0.70153 1.87689,-1.25669 0.22694,-0.51672 -0.0214,-0.8989 -0.58917,-1.06522 -0.20328,-0.0598 -0.21659,-0.21437 -0.12271,-1.55088 l 0.20773,-2.97243 0.89076,0.0621 c 0,0 1.20419,-5.49169 1.27368,-8.27635 0.0319,-1.24115 -0.16484,-1.9449 -0.0695,-2.54071 0.11975,-0.74366 0.69191,-1.32026 1.66769,-1.9316 1.45701,-0.91368 9.36301,-2.87262 9.98987,-2.47565 0.45906,0.29199 0.64682,0.79614 1.12214,1.17906 0.54407,0.43762 1.46293,0.71927 2.09053,1.1495 0.68304,0.46939 1.23598,2.50522 1.11178,4.0916 -0.28016,3.59484 -1.58711,9.89673 -1.58711,9.89673 l 0,0 z m 47.30293,2.41209 0,0 1.78153,0.12493 0.12715,-1.78302 -1.78302,-0.12492 -0.12566,1.78301 0,0 z"
   id="path3055"
   style="fill:url(#SVGID_2_)"
   inkscape:connector-curvature="0"
   inkscape:export-xdpi="7.7924938"
   inkscape:export-ydpi="7.7924938" />
</svg>