<?xml version="1.0" encoding="UTF-8" standalone="no"?>
<!-- Generator: Adobe Illustrator 15.0.0, SVG Export Plug-In . SVG Version: 6.00 Build 0)  -->

<svg
   xmlns:dc="http://purl.org/dc/elements/1.1/"
   xmlns:cc="http://creativecommons.org/ns#"
   xmlns:rdf="http://www.w3.org/1999/02/22-rdf-syntax-ns#"
   xmlns:svg="http://www.w3.org/2000/svg"
   xmlns="http://www.w3.org/2000/svg"
   xmlns:sodipodi="http://sodipodi.sourceforge.net/DTD/sodipodi-0.dtd"
   xmlns:inkscape="http://www.inkscape.org/namespaces/inkscape"
   version="1.1"
   id="Layer_1"
   x="0px"
   y="0px"
   width="250"
   height="250"
   viewBox="0 0 249.99999 250"
   enable-background="new 0 0 595.28 150.5"
   xml:space="preserve"
   inkscape:version="0.48.4 r9939"
   sodipodi:docname="apiwatch-logo-square.svg"
   inkscape:export-filename="D:\Dropbox\devel\apiwatch\_docs\images\apiwatch-logo-square.png"
   inkscape:export-xdpi="92.160004"
   inkscape:export-ydpi="92.160004"><metadata
   id="metadata3061"><rdf:RDF><cc:Work
       rdf:about=""><dc:format>image/svg+xml</dc:format><dc:type
         rdf:resource="http://purl.org/dc/dcmitype/StillImage" /><dc:title></dc:title></cc:Work></rdf:RDF></metadata><defs
   id="defs3059" /><sodipodi:namedview
   pagecolor="#ffffff"
   bordercolor="#666666"
   borderopacity="1"
   objecttolerance="10"
   gridtolerance="10"
   guidetolerance="10"
   inkscape:pageopacity="0"
   inkscape:pageshadow="2"
   inkscape:window-width="1600"
   inkscape:window-height="1147"
   id="namedview3057"
   showgrid="false"
   fit-margin-top="0"
   fit-margin-left="0"
   fit-margin-right="0"
   fit-margin-bottom="0"
   inkscape:zoom="2.4190296"
   inkscape:cx="190.35892"
   inkscape:cy="76.652767"
   inkscape:window-x="-4"
   inkscape:window-y="-4"
   inkscape:window-maximized="1"
   inkscape:current-layer="Layer_1" />
<g
   id="g3025"
   transform="matrix(0.97794487,0,0,0.97794487,16.275301,22.522981)"
   inkscape:export-filename="D:\Dropbox\devel\apiwatch\logo\path3055.png"
   inkscape:export-xdpi="7.7924938"
   inkscape:export-ydpi="7.7924938">
	<g
   id="g3027">
		<linearGradient
   id="SVGID_1_"
   gradientUnits="userSpaceOnUse"
   x1="134.6777"
   y1="-2.3413"
   x2="82.252098"
   y2="159.0081">
			<stop
   offset="0"
   style="stop-color:#008FFE"
   id="stop3030" />
			<stop
   offset="0.2501"
   style="stop-color:#0072F1"
   id="stop3032" />
			<stop
   offset="0.5477"
   style="stop-color:#0055E4"
   id="stop3034" />
			<stop
   offset="0.8078"
   style="stop-color:#0044DD"
   id="stop3036" />
			<stop
   offset="1"
   style="stop-color:#003EDA"
   id="stop3038" />
		</linearGradient>
		<path
   clip-rule="evenodd"
   d="m 59.632,30.739 c -3.068,0 -6.138,0 -9.206,0 0,-4.398 0,-8.797 0,-13.195 -6.238,0 -12.479,0 -18.718,0 0,4.398 0,8.797 0,13.195 -3.068,0 -6.137,0 -9.206,0 0,4.398 0,8.796 0,13.195 -3.068,0 -6.137,0 -9.205,0 0,30.886 0,61.783 0,92.67 6.238,0 12.479,0 18.718,0 0,-13.194 0,-26.391 0,-39.584 6.034,0 12.07,0 18.105,0 0,13.193 0,26.39 0,39.584 6.238,0 12.479,0 18.718,0 0,-30.887 0,-61.784 0,-92.67 -3.068,0 -6.137,0 -9.206,0 0,-4.399 0,-8.797 0,-13.195 z m -9.512,52.78 c -6.035,0 -12.071,0 -18.105,0 0,-13.092 0,-26.188 0,-39.278 6.034,0 12.07,0 18.105,0 0,13.089 0,26.186 0,39.278 z m 83.464,-65.976 c -15.443,0 -30.892,0 -46.336,0 0,39.682 0,79.377 0,119.06 6.239,0 12.48,0 18.719,0 0,-17.591 0,-35.188 0,-52.778 9.205,0 18.412,0 27.617,0 0,-4.398 0,-8.797 0,-13.196 3.068,0 6.137,0 9.206,0 0,-13.295 0,-26.595 0,-39.89 -3.068,0 -6.138,0 -9.206,0 0,-4.399 0,-8.798 0,-13.196 z m -9.513,52.779 c -6.035,0 -12.07,0 -18.104,0 0,-13.091 0,-26.187 0,-39.278 6.034,0 12.07,0 18.104,0 0,13.092 0,26.187 0,39.278 z m 71.804,-39.278 c 0,-4.5 0,-9.001 0,-13.501 -12.376,0 -24.755,0 -37.13,0 0,4.5 0,9.001 0,13.501 3.068,0 6.138,0 9.206,0 0,30.785 0,61.581 0,92.365 -3.068,0 -6.138,0 -9.206,0 0,4.396 0,8.798 0,13.194 12.375,0 24.754,0 37.13,0 0,-4.396 0,-8.798 0,-13.194 -3.07,0 -6.138,0 -9.207,0 0,-30.784 0,-61.58 0,-92.365 3.069,0 6.138,0 9.207,0 z"
   id="path3040"
   style="fill:url(#SVGID_1_);fill-rule:evenodd"
   inkscape:connector-curvature="0" />
	</g>
</g>
<linearGradient
   id="SVGID_2_"
   gradientUnits="userSpaceOnUse"
   x1="316.89651"
   y1="-23.3242"
   x2="445.7254"
   y2="141.5694"
   gradientTransform="matrix(0.62815207,0,0,0.62815207,-121.65402,131.71079)">
	<stop
   offset="0"
   style="stop-color:#FF9A00"
   id="stop3043" />
	<stop
   offset="0.164"
   style="stop-color:#FF9500"
   id="stop3045" />
	<stop
   offset="0.3628"
   style="stop-color:#FF8600"
   id="stop3047" />
	<stop
   offset="0.5798"
   style="stop-color:#FF6D00"
   id="stop3049" />
	<stop
   offset="0.808"
   style="stop-color:#FF4C00"
   id="stop3051" />
	<stop
   offset="1"
   style="stop-color:#FF2900"
   id="stop3053" />
</linearGradient>
<path
   d="m 95.13949,213.97861 0.05404,-0.75566 0.756928,0.0528 -0.05278,0.75692 -0.758167,-0.054 0,0 0,0 z m -7.63206,-75.88328 0.05277,-0.75755 -1.135067,-0.0792 -0.05403,0.75757 1.136328,0.0792 0,0 0,0 z m -45.133989,41.36884 -0.05594,-8.60819 c -0.0067,-1.23055 -0.01569,-1.4303 -0.08416,-2.00192 -0.05085,-0.42463 -0.158295,-0.95543 -0.364326,-1.22238 -0.300883,-0.38947 -0.812825,-0.21797 -1.101151,-0.6602 -0.558425,-0.85492 -0.285814,-4.00322 -0.285814,-4.00322 l -5.431,-0.38003 -12.014038,23.13486 -1.265089,-0.0879 c 0,0 -0.03833,-2.97054 0.317842,-4.55287 0.266967,-1.1853 0.755662,-1.58669 1.264463,-2.66963 0.442857,-0.94097 0.900148,-2.39514 0.62125,-2.51889 -0.100508,-0.0441 -0.294606,0.0817 -0.379407,-0.0263 -0.07541,-0.0967 -0.06222,-0.38443 -0.153268,-0.57852 -0.103024,-0.21797 -0.340462,-0.31471 -0.527646,-0.45353 -0.903914,-0.66269 -0.662705,-2.2513 -1.129416,-3.65145 -0.238078,-0.71169 -5.894581,-4.55032 -6.642086,-4.507 -0.709179,0.0408 -1.300904,0.28708 -1.89074,0.58985 -0.795866,0.40893 -0.89386,0.59047 -0.979911,1.81849 l -3.1376204,44.86828 c -0.086089,1.22742 -0.056531,1.38886 0.2902051,1.61562 1.3725103,0.89826 0.6005153,1.52388 1.6313113,3.83108 0.09111,0.20352 0.202891,0.32099 0.586697,0.42591 0.334801,0.0911 0.874389,0.17085 0.874389,0.17085 0,0 -0.465467,2.00568 -0.158295,2.27327 0.104897,0.0905 0.297745,-0.0189 0.442212,-0.17777 0.429028,-0.46733 0.4284,-1.35742 0.858691,-1.83733 0.641337,-0.71422 3.109981,-0.45604 3.417145,-1.71611 0.07848,-0.32288 -0.01194,-0.71861 0.170852,-0.87566 0.201638,-0.17084 0.737451,-0.0528 1.100525,0.0145 0.488705,0.091 0.589211,-0.0277 1.008185,-1.18593 1.099264,-3.03776 2.113102,-6.22124 3.615644,-8.99013 2.567254,-4.73124 7.172238,-12.45185 7.366336,-13.7804 0.202265,-1.39072 0.202892,-2.90834 0.202892,-2.90834 l 2.272032,0.15893 -2.032077,18.91678 c -0.13191,1.2224 -0.130658,1.46863 0.01512,2.44602 0.09168,0.61937 0.499373,2.08234 0.915217,2.46552 0.118091,0.10992 0.269472,0.18028 0.386937,0.31281 0.184055,0.20603 0.288327,0.56597 0.354908,0.87501 0.09111,0.4171 0.190333,0.45856 0.991852,0.41207 0.594863,-0.0358 1.515099,-0.10616 1.760082,0.23557 0.178393,0.24873 0,0.71671 0.127518,0.95792 0.46357,0.88382 2.881957,-1.14072 3.111859,-1.51886 1.032058,-1.69727 0.924012,-4.29971 1.885714,-4.95676 0.200387,-0.13631 0.44536,-0.18907 0.680289,-0.32664 1.157689,-0.68028 3.046541,-5.88892 3.374435,-7.75014 0.213571,-1.21548 0.249375,-1.34864 0.3637,-1.34172 l 0.252513,0.0176 c 0,0 -0.02889,-1.99626 0.428403,-2.86249 0.393225,-0.74499 1.147634,-0.65013 1.608076,-1.15265 0.655781,-0.71547 0.719857,-2.63698 1.354289,-3.19855 0.294607,-0.26194 0.714842,-0.22802 0.952276,-0.47362 0.708561,-0.73056 -0.179019,-3.92031 0.317851,-4.54469 0.211682,-0.26635 0.676515,-0.0648 1.14386,-0.15767 0.588585,-0.1162 3.478707,-5.25261 3.748188,-6.65967 0.23179,-1.21421 0.204143,-2.15394 0.596116,-3.05659 0.686567,-1.58042 2.658969,-3.04904 3.493777,-4.86881 0.873137,-1.90267 0.501273,-4.18788 1.571011,-5.57673 0.994366,-1.28833 3.229333,-1.80467 4.081102,-3.22054 0.559684,-0.92901 0.522629,-2.24753 1.171507,-3.13384 0.687193,-0.9372 2.142626,-1.39136 2.786486,-2.47052 0.696612,-1.16962 0.444099,-3.07293 1.400148,-3.70673 0.569103,-0.37753 1.561582,-0.30717 1.956694,-0.8191 0.187821,-0.24311 0.241833,-0.61561 0.474886,-0.87879 0.267592,-0.30278 0.775133,-0.46169 1.182802,-0.73808 0.638207,-0.42966 1.033309,-1.1445 1.606188,-1.5616 0.793989,-0.58041 1.92843,-0.58607 2.712365,-1.15578 0.705414,-0.51259 1.12879,-1.48183 1.753168,-2.16526 1.181552,-1.29272 2.161473,-1.21359 2.306575,-3.64013 0.09924,-1.65958 -0.466093,-4.21866 -0.466093,-4.21866 l 1.469878,0.77764 c 0.658931,0.34926 0.722381,0.44285 0.63318,0.93092 -0.314078,1.68156 0.148241,1.87441 3.785869,0.76133 1.274532,-0.38947 3.118781,-1.77706 3.243786,-2.44038 0.07597,-0.41584 0.0628,-0.90893 0.0628,-0.90893 l -2.272026,-0.15892 -0.07973,1.13633 -0.755675,-0.0528 0.104269,-1.51572 -1.513846,-0.10554 0.131283,-1.89324 c 0,0 -1.50756,-0.27828 -2.091743,0.0478 -0.328522,0.18341 -0.365587,0.55905 -0.478651,0.88505 -0.212318,0.60114 -3.533356,2.15143 -5.503869,2.56851 -1.375025,0.29086 -11.088141,6.10126 -11.289779,6.75201 -0.398877,1.294 -0.758811,2.98561 -1.369997,3.26577 -0.808434,0.36936 -2.287103,-0.15138 -3.073552,0.41899 -0.88758,0.64384 -0.893233,2.67843 -1.942239,3.289 -0.829167,0.48242 -1.100525,0.20478 -1.520136,1.06094 -0.501887,1.02201 -0.37877,2.50508 -1.096124,3.2865 -0.28958,0.31721 -0.71672,0.51886 -1.000019,0.86496 -0.298998,0.36559 -0.438447,0.89072 -0.74687,1.10555 -0.51069,0.35617 -1.484949,-0.13191 -2.219262,-0.0697 -0.716719,0.0609 -1.206049,0.64449 -1.719877,1.32793 -3.719916,4.94104 -9.566136,16.67365 -9.566136,16.67365 l 0,0 0,0 z m 91.668749,-32.02508 0,0 c 0,0 -0.0628,0.33606 -0.0427,0.60617 0.054,0.68782 0.64763,0.946 1.19098,1.26259 0.821,0.47864 1.52515,1.0911 2.29903,1.41648 2.69667,1.13507 3.34806,-0.79902 5.32108,-2.37882 1.34613,-1.07916 3.52581,-1.55405 4.85374,-2.61688 0.25,-0.20037 0.47111,-0.42274 0.64385,-0.68532 0.23555,-0.3549 0.39888,-0.38441 1.62567,-0.299 l 4.82294,0.33732 -0.26509,3.78651 1.46361,0.86371 c 0.65766,0.38882 0.73368,0.55906 0.75566,1.70103 0.0157,0.84612 0.18027,2.05029 -0.28957,2.51763 -0.27513,0.272 -0.76321,0.2946 -1.12377,0.48306 -0.95668,0.5044 -1.01573,5.96744 -2.09427,6.86319 -0.28831,0.23994 -0.66834,0.37438 -0.96672,0.64009 -0.45792,0.40767 -0.71796,1.12691 -1.18782,1.54902 -0.35806,0.32223 -0.83672,0.47237 -1.28584,0.69662 -1.05027,0.5245 -1.94476,1.45605 -2.8047,2.31411 -0.87249,0.87061 -0.99625,0.96736 -1.22551,0.97615 -1.02327,0.0358 -1.67467,-0.90266 -2.40457,-2.64327 -0.55466,-1.31597 -1.14953,-3.05784 -1.14953,-3.05784 0,0 -2.65835,4.16591 -4.59555,5.88137 -0.3769,0.33356 -0.72741,0.57541 -0.98055,0.91273 -0.5779,0.76885 -0.6539,2.0352 -1.13758,2.98246 -0.28707,0.56031 -0.71673,1.00881 -1.06221,1.54715 -0.96798,1.50504 -1.28082,3.71487 -2.34426,4.88135 -0.32664,0.35617 -0.72238,0.61559 -0.98746,1.09173 -0.84047,1.50758 -0.36432,5.19169 -0.36432,5.19169 0,0 2.39262,-2.29339 4.17845,-3.23185 0.91398,-0.48054 1.6709,-0.60366 1.98749,-1.07163 0.26004,-0.38254 0.22802,-0.995 0.50566,-1.2651 0.38003,-0.36747 1.33609,-0.10425 2.13697,-0.29962 1.5151,-0.36684 2.20859,-2.03271 3.23749,-3.16715 0.87941,-0.97363 2.15331,-1.74186 2.81789,-2.76951 0.72488,-1.12 0.72866,-2.55094 1.59614,-3.16276 0.90328,-0.63632 2.74063,-0.38631 3.64014,-1.10051 0.3926,-0.31093 1.57917,-2.02203 2.41462,-1.14513 0.50942,0.53582 -1.65268,2.24752 -2.09927,2.82103 -0.39009,0.4975 -0.52515,0.98621 -0.0848,1.21234 0.67086,0.34485 2.65017,0.18592 2.65017,0.18592 0,0 0.004,0.48997 -0.0659,0.94664 -0.34484,2.26636 -2.59867,3.78523 -2.3763,4.42281 0.0835,0.24058 0.52012,0.36245 0.81597,0.47237 0.40139,0.14825 0.44285,0.24561 0.41332,0.97865 -0.0207,0.544 -0.0157,1.26071 -0.33856,1.58925 -0.19662,0.19975 -0.51634,0.25376 -0.78897,0.38631 -0.99123,0.48367 -1.34927,2.00254 -2.08673,3.07542 -0.77387,1.1288 -1.96799,1.7626 -2.88697,2.67154 -0.76699,0.75944 -1.34362,1.71046 -2.02893,2.57794 -0.76949,0.97238 -1.67716,1.84047 -2.76388,2.4724 -0.68467,0.39574 -1.43783,0.69912 -1.88445,1.28833 -0.59737,0.79149 -0.51634,1.24564 -1.30279,1.593 -0.6897,0.30341 -1.65393,0.26633 -2.09048,0.70165 -0.33481,0.33356 -0.36057,0.94599 -0.57415,1.47239 -0.6696,1.64576 -2.10869,1.89135 -3.1885,2.81223 -0.79397,0.67527 -1.14699,1.65645 -2.06849,2.49629 -1.76574,1.61057 -7.04725,3.08044 -7.04725,3.08044 l 1.12629,-2.72806 -1.89452,-0.13254 -0.0796,1.13633 c 0,0 -0.81974,0.0824 -1.2651,-0.0885 -0.54461,-0.2073 -0.52891,-0.79336 -0.72363,-1.16963 -0.28204,-0.55026 -1.00945,-0.6627 -1.5817,-1.02388 -0.54333,-0.34361 -2.09801,-7.22501 -2.09173,-9.26211 0.0125,-3.67656 0.36432,-11.56866 3.56664,-15.62151 0.2255,-0.2858 0.46232,-0.53141 0.69662,-0.81973 1.74565,-2.13824 3.37128,-6.55854 5.1967,-9.6346 0.63947,-1.07792 1.30279,-1.99 2.093,-2.9096 0.13506,-0.1583 8.86009,-8.84754 5.98818,-9.63273 -0.27953,-0.0767 -0.70289,0.0226 -1.03771,0.12249 -0.45165,0.13444 -0.49812,0.24248 -0.45416,1.08294 0.0321,0.62313 0.0333,1.38382 -0.24308,1.84552 -0.70164,1.17151 -3.03398,0.41332 -4.48815,0.93218 -0.67464,0.24057 -1.1646,0.75818 -1.86373,1.10239 -0.87376,0.43155 -2.0773,0.59236 -3.14704,0.71988 -1.22553,0.14698 -1.3631,0.19346 -1.38256,0.46546 l -0.0207,0.30401 c -0.0195,0.272 -0.15829,0.31346 -1.38507,0.419 -1.80844,0.15514 -4.33425,0.1878 -5.37887,0.80464 -1.32163,0.77954 -3.23876,6.51459 -4.04843,9.03346 -2.57984,8.03407 -5.0937,26.36041 -7.21371,32.33351 -0.26886,0.75065 -0.55339,1.48746 -0.87815,1.90518 -0.42463,0.54273 -1.245,0.65642 -1.70417,-0.11935 -0.44537,-0.75002 0.21482,-2.19475 0.21984,-3.15772 0.002,-0.52135 -0.18656,-0.90327 -0.93469,-1.07852 -0.739962,-0.17025 -2.023274,-0.14135 -2.023274,-0.14135 l -1.190351,14.53105 c -0.100498,1.22488 -0.155784,1.39261 -0.557178,1.66711 -0.297105,0.20352 -0.557161,0.34862 -0.770736,0.75001 -0.560942,1.06031 -0.78016,3.90146 -0.78016,3.90146 0,0 0.07724,-1.96424 -0.434059,-2.84302 -0.400128,-0.68532 -1.157055,-0.71044 -1.802165,-0.90956 -0.87251,-0.26822 -0.957935,-0.43281 -0.87376,-1.65959 l 0.258799,-3.69039 3.08297,-0.54523 0.162064,-2.33485 -3.109984,0.29774 c 0,0 0.224248,-1.54399 0.611197,-2.15518 0.209802,-0.33355 0.468591,-0.38631 0.74498,-0.51509 0.370617,-0.17337 0.430914,-0.32726 0.602401,-1.54524 l 0.56786,-4.0497 0.758167,0.0514 0.105539,-1.51447 c 0.04776,-0.68155 0.01317,-0.76887 -0.33355,-0.86812 -0.257549,-0.073 -0.533938,-0.15641 -0.722378,-0.34799 -0.405158,-0.40767 -0.06526,-2.95168 0.485563,-3.62632 0.458547,-0.56221 1.036451,-0.69034 1.364343,-1.06157 0.728656,-0.82854 0.197234,-2.87129 0.653904,-5.5089 0.485561,-2.78208 2.069773,-6.22687 2.069773,-6.22687 l -1.109324,-0.45855 0.18279,-2.6508 c 0,0 -1.09047,0.0867 -1.919006,0.24685 -0.814719,0.15768 -2.054684,1.36687 -2.041488,1.98748 0.01317,0.71987 0.261305,1.69224 0.261305,1.69224 l 2.326042,-0.59675 -0.0797,1.13508 c 0,0 -0.560934,-0.10362 -0.908939,-0.0634 -0.64511,0.0753 -0.560934,0.67087 -0.851139,1.05656 -0.696621,0.92465 -3.892658,0.61371 -5.846215,1.17402 -0.565335,0.16269 -1.030795,0.40075 -1.476156,0.72363 -0.601146,0.4353 -0.675902,0.62061 -0.763206,1.8474 l -1.079802,15.42865 -0.251263,-0.0175 c -0.114314,-0.007 -0.15578,0.12312 -0.434044,1.32729 -0.222997,0.96043 -0.620613,1.94852 -0.992479,2.77956 -1.136328,2.54402 -1.873155,2.54277 -3.821682,-0.21042 -2.523912,-3.56414 -3.331093,-6.46433 -3.09679,-11.558 0.105534,-2.25068 0.364326,-5.20236 0.364326,-5.20236 0,0 -2.332326,-1.8474 -3.321039,-1.75569 -0.73619,0.0692 -0.727398,1.21171 -1.24374,1.75444 -0.769481,0.80968 -2.699173,0.29459 -4.041532,0.67714 -2.652681,0.75693 -6.51142,10.00709 -7.225,11.52847 -0.523256,1.11434 -0.648887,1.23307 -1.253794,1.19098 l -1.349273,-0.0936 -0.39699,5.67911 -4.491283,-1.07537 0.08735,4.1929 -1.893252,-0.13254 0.238695,-3.40774 -2.27265,-0.15892 0.370604,-5.30159 1.515109,0.10553 c 0,0 0.885059,-3.70107 0.88192,-5.60814 -0.0048,-3.14704 -0.216084,-3.24379 1.95104,-5.27586 1.047765,-0.98243 3.33612,-5.44983 4.627594,-8.57489 0.679038,-1.64201 1.296512,-3.11691 2.230577,-4.43602 1.154539,-1.62942 2.79213,-3.02141 3.47682,-4.90272 0.294606,-0.80718 0.412695,-1.70733 0.829783,-2.15393 0.189082,-0.20164 0.43783,-0.31157 0.693482,-0.45478 0.849265,-0.47616 7.451772,-10.74329 7.922883,-12.3162 0.511315,-1.70982 0.872501,-3.21613 1.643879,-3.86249 0.611185,-0.51509 7.556034,-1.15769 8.196755,-0.75945 0.694107,0.4328 1.236826,1.35808 1.44663,2.74 0.342341,2.2469 -0.440332,5.28716 0.256288,6.90088 0.203518,0.47425 0.53644,0.82477 0.755663,1.32163 0.715472,1.62943 0.19536,4.8261 0.732428,6.6647 0.275135,0.93595 0.615599,1.09173 1.521385,0.96861 1.54589,-0.20917 2.412114,-0.53643 2.643889,-1.45605 0.05651,-0.23179 0.199759,-0.24812 1.426536,-0.16144 l 2.803447,0.19598 -0.132536,1.89325 -2.652692,-0.1853 -0.132535,1.89452 -0.756919,-0.0534 -0.05277,0.75693 5.681638,0.39824 0.668362,-4.14014 0.405156,0.0289 c 0.180278,0.0132 0.253775,-0.0911 0.727396,-1.03644 0.34989,-0.70041 0.66772,-1.24375 0.73117,-2.22556 0.10553,-1.59486 -0.45793,-4.3468 -0.45793,-4.3468 l -6.821097,0.84989 c -1.220497,0.15137 -1.400151,0.17023 -1.780183,0.18718 -0.284545,0.0125 -0.593598,0.002 -0.840467,-0.10742 -1.338586,-0.59672 -0.277016,-2.37755 -0.975524,-3.29967 -0.243095,-0.31972 -0.78016,-0.33355 -1.092976,-0.65014 -0.63318,-0.6426 -0.375639,-3.59492 -0.250013,-4.58489 0.675896,-5.30915 3.643914,-3.41715 8.108195,-3.13071 2.31662,0.14951 11.069915,-3.90333 15.392235,-4.3173 2.93473,-0.2814 6.99195,-0.5402 7.50328,-1.07349 0.46608,-0.48556 0.46733,-0.7073 1.26759,-0.94475 1.76451,-0.52325 4.64959,0.076 5.95993,-0.82728 0.25753,-0.17776 0.4529,-0.4127 0.61934,-0.66835 0.22426,-0.34485 0.38507,-0.37375 1.61185,-0.28769 l 5.58239,0.39008 -0.10678,1.51447 -0.7563,-0.0566 0,0 z m -59.540024,29.70406 0,0 c 0,0 0.584183,0.13632 1.212336,0.0862 1.418368,-0.1137 3.04968,-1.17904 3.04968,-1.17904 l 0.591089,-8.46122 -1.513848,-0.10552 c 0,0 -0.113064,0.79461 -0.238068,1.47365 -0.262566,1.42778 -0.584183,2.34614 -1.214841,2.77455 -0.304032,0.20414 -0.679664,0.2971 -0.975521,0.52953 -0.652652,0.51005 -1.016976,2.12817 -1.199771,3.57041 -0.04402,0.33479 -0.08484,0.66648 0.09292,0.77137 0.07473,0.0446 0.18907,0.049 0.222362,0.16332 0.03389,0.12437 -0.02639,0.37689 -0.02639,0.37689 l 0,0 z m 100.985504,-23.76173 0,0 c 0,0 1.15454,0.14133 2.15079,0.15012 1.64514,0.0151 3.48688,-0.54148 4.59557,-1.27893 0.23556,-0.15577 0.45665,-0.31847 0.74372,-0.40327 0.74625,-0.21922 1.93095,0.10678 2.33736,-0.2588 0.16584,-0.152 0.19976,-0.4196 0.31031,-0.67714 0.21608,-0.49624 0.71986,-0.94726 1.12502,-1.44915 1.22552,-1.51887 1.40014,-6.96495 2.75193,-9.81612 0.39259,-0.83105 5.11818,-4.13514 6.29848,-4.40462 2.3116,-0.52764 4.28902,-0.0836 5.28654,2.76953 0.39636,1.12753 0.2971,1.35806 0.0552,2.2243 -0.6426,2.30467 -0.9592,8.17287 -0.9592,8.17287 0,0 15.96513,-3.01073 17.04743,-2.38634 0.46734,0.26948 0.52262,0.71985 0.94725,0.97865 1.77264,1.08169 4.01075,-1.37313 6.67663,-1.3386 1.45292,0.0189 2.83673,1.05657 3.46237,0.91523 0.40139,-0.0904 0.48933,-0.6671 0.99751,-1.0421 0.61685,-0.45542 8.89715,-0.11935 13.34823,-0.0105 1.23055,0.0309 1.39513,0.0176 1.65644,-0.1338 0.19285,-0.11371 0.41458,-0.17022 0.62564,-0.23431 0.78644,-0.23995 1.37879,-0.57853 1.53143,-0.1338 0.14009,0.41459 -0.10677,1.51448 -0.10677,1.51448 0,0 -6.41031,-0.49936 -8.26147,0.23556 -0.41206,0.16332 -0.59864,0.38883 -0.98181,0.57098 -1.9014,0.90833 -10.27343,0.74312 -10.27343,0.74312 l -0.0709,1.01573 1.69539,1.13004 10.43297,-0.41208 0.0797,-1.13569 9.08747,0.63506 -0.0885,1.26573 -20.71583,2.37881 -0.0413,0.60678 1.13507,0.0785 -0.0785,1.13696 c 0,0 -1.37316,-0.2544 -2.02328,-0.14196 -0.69224,0.1206 -0.5597,0.6759 -0.87251,1.05341 -0.43093,0.522 -4.59807,0.77514 -6.92224,0.99437 -1.22552,0.1162 -1.3631,0.14824 -1.37628,0.32978 l -0.0125,0.20227 c -0.0132,0.18153 -0.13255,0.20415 -1.18657,0.21985 -2.64515,0.0389 -4.32735,0.88946 -5.46681,1.92778 -0.80216,0.73243 -10.40974,3.77458 -11.48703,3.63702 -1.70919,-0.21797 -3.30785,-0.68784 -3.68787,-0.25816 -0.58041,0.65954 -0.48808,2.60179 -1.28332,3.54591 -0.28078,0.33229 -0.67087,0.54084 -0.94852,0.88192 -0.61495,0.75945 -0.6652,2.25569 -0.75565,3.82229 -0.10931,1.89829 -3.92597,14.23647 -4.51704,14.60958 -0.76949,0.48429 -1.69162,0.72489 -2.06725,1.58734 -0.40516,0.9347 -0.31409,2.63321 -0.7965,3.17657 -0.80467,0.90767 -1.4548,-2.01009 -2.84239,-2.28963 -0.44662,-0.0886 -0.84298,0.48558 -1.37441,0.84488 -0.32663,0.21796 -0.70163,0.35616 -0.82539,0.14384 -0.31908,-0.54084 0.99626,-3.35495 0.99626,-3.35495 l -2.27202,-0.16019 c 0,0 0.48431,-2.95671 0.29083,-4.16591 -0.17776,-1.10555 -1.169,-0.60176 -1.56536,-1.20353 -0.32851,-0.50001 2.75696,-11.21189 3.29781,-11.44241 0.28078,-0.11936 0.55968,-0.0767 0.70917,-0.50252 0.29083,-0.82917 0.23808,-3.40774 0.23808,-3.40774 l -0.84174,-0.0597 c -0.37939,-0.0258 -0.44157,0.0333 -0.60113,0.58919 -0.11997,0.4127 -0.36433,0.80969 -0.56094,1.15392 -0.3348,0.58544 -0.53519,1.01887 -0.87125,1.34926 -1.13381,1.11058 -8.82113,1.6376 -9.64779,2.66337 -1.049,1.30342 -0.5421,3.87068 -1.57916,4.9624 -0.28834,0.30214 -0.69411,0.48996 -0.97428,0.84424 -0.97803,1.24186 -0.44535,7.57111 -1.33984,8.27779 -0.67087,0.53266 -1.92591,0.2745 -2.32983,1.02138 -0.28202,0.52262 -0.15075,1.53583 -0.5804,2.05028 -0.54963,0.65643 -3.33926,0.93532 -3.44228,0.99877 -1.39889,0.87438 -2.03521,4.85687 -3.31726,5.69859 -1.48056,0.97238 -1.20103,-1.42213 -2.05406,-3.20609 -0.23807,-0.5 -0.58545,-0.87752 -0.79524,-1.32602 -0.94224,-1.9988 0.58669,-9.07492 0.85617,-9.85508 1,-2.91085 2.8292,-5.48566 3.48184,-8.69551 0.43783,-2.15959 0.71987,-5.12258 1.40204,-6.05413 0.31785,-0.43217 0.74123,-0.7739 1.00631,-1.15769 1.04523,-1.50128 -1.03647,-1.26823 -2.30406,-2.74126 -1.36437,-1.58672 1.53456,-2.46235 3.26451,-3.13572 0.69786,-0.27326 1.39008,-0.59613 1.59487,-1.06787 0.19284,-0.43908 -0.0182,-0.76384 -0.50064,-0.90517 -0.17275,-0.0507 -0.18405,-0.18216 -0.10426,-1.31786 l 0.17652,-2.5258 0.75692,0.0528 c 0,0 1.02326,-4.66655 1.08231,-7.03279 0.0271,-1.05466 -0.14008,-1.65267 -0.059,-2.15896 0.10177,-0.63192 0.58795,-1.12188 1.41712,-1.64137 1.23808,-0.77639 7.95616,-2.44099 8.48884,-2.10367 0.39008,0.24811 0.54962,0.67651 0.95353,1.0019 0.46232,0.37186 1.24312,0.6112 1.77641,0.97679 0.58042,0.39885 1.05028,2.12879 0.94474,3.47682 -0.23807,3.05469 -1.34864,8.4097 -1.34864,8.4097 l 0,0 z m 40.19546,2.04964 0,0 1.51385,0.10618 0.10803,-1.51513 -1.51511,-0.10614 -0.10677,1.51509 0,0 z"
   id="path3055"
   style="fill:url(#SVGID_2_)"
   inkscape:connector-curvature="0"
   inkscape:export-xdpi="7.7924938"
   inkscape:export-ydpi="7.7924938" />
</svg>